Version 0.01.ufo
<glyph name="percent" format="1">
  <advance width="1702"/>
  <unicode hex="0025"/>
  <outline>
    <contour>
      <point x="399" y="565" type="qcurve" smooth="yes"/>
      <point x="326.0" y="565.0" name="inserted"/>
      <point x="214.5" y="626.0"/>
      <point x="176" y="687" type="qcurve" smooth="yes"/>
      <point x="138.0" y="748.0" name="inserted"/>
      <point x="100.0" y="917.5"/>
      <point x="100" y="1026" type="qcurve" smooth="yes"/>
      <point x="100" y="1253"/>
      <point x="250" y="1483"/>
      <point x="399" y="1483" type="qcurve" smooth="yes"/>
      <point x="548" y="1483"/>
      <point x="707" y="1249"/>
      <point x="707" y="1026" type="qcurve" smooth="yes"/>
      <point x="707" y="797"/>
      <point x="551" y="565"/>
    </contour>
    <contour>
      <point x="399" y="694" type="qcurve" smooth="yes"/>
      <point x="481.0" y="694.0" name="inserted"/>
      <point x="563.0" y="860.0"/>
      <point x="563" y="1026" type="qcurve" smooth="yes"/>
      <point x="563.0" y="1191.0" name="inserted"/>
      <point x="481.0" y="1356.0"/>
      <point x="399" y="1356" type="qcurve" smooth="yes"/>
      <point x="318" y="1356"/>
      <point x="244" y="1191"/>
      <point x="244" y="1026" type="qcurve" smooth="yes"/>
      <point x="244" y="860"/>
      <point x="318" y="694"/>
    </contour>
    <contour>
      <point x="1335" y="1462" type="line"/>
      <point x="524" y="0" type="line"/>
      <point x="367" y="0" type="line"/>
      <point x="1178" y="1462" type="line"/>
    </contour>
    <contour>
      <point x="1294" y="-20" type="qcurve" smooth="yes"/>
      <point x="1222" y="-20"/>
      <point x="1111" y="42"/>
      <point x="1072.5" y="100.5" type="qcurve" smooth="yes" name="inserted"/>
      <point x="1034" y="159"/>
      <point x="995" y="330"/>
      <point x="995" y="440" type="qcurve" smooth="yes"/>
      <point x="995.0" y="668.5" name="inserted"/>
      <point x="1144.5" y="897.0"/>
      <point x="1294" y="897" type="qcurve" smooth="yes"/>
      <point x="1367" y="897"/>
      <point x="1482" y="836"/>
      <point x="1521.5" y="778.0" type="qcurve" smooth="yes" name="inserted"/>
      <point x="1561" y="720"/>
      <point x="1602" y="549"/>
      <point x="1602" y="440" type="qcurve" smooth="yes"/>
      <point x="1602" y="213"/>
      <point x="1447" y="-20"/>
    </contour>
    <contour>
      <point x="1294" y="109" type="qcurve" smooth="yes"/>
      <point x="1378" y="109"/>
      <point x="1458" y="271"/>
      <point x="1458" y="440" type="qcurve" smooth="yes"/>
      <point x="1458.0" y="604.0" name="inserted"/>
      <point x="1376.0" y="768.0"/>
      <point x="1294" y="768" type="qcurve" smooth="yes"/>
      <point x="1213" y="768"/>
      <point x="1139" y="605"/>
      <point x="1139" y="440" type="qcurve" smooth="yes"/>
      <point x="1139" y="273"/>
      <point x="1213" y="109"/>
    </contour>
  </outline>
</glyph>
<glyph name="comma" format="1">
  <advance width="549"/>
  <unicode hex="002C"/>
  <outline>
    <contour>
      <point x="437" y="87" type="qcurve" smooth="yes"/>
      <point x="437" y="30"/>
      <point x="382" y="-82"/>
      <point x="338.5" y="-132.0" type="qcurve" smooth="yes" name="inserted"/>
      <point x="295" y="-182"/>
      <point x="187" y="-268"/>
      <point x="133" y="-300" type="qcurve"/>
      <point x="72" y="-238" type="line"/>
      <point x="94" y="-224"/>
      <point x="141" y="-190"/>
      <point x="160.5" y="-170.5" type="qcurve" smooth="yes" name="inserted"/>
      <point x="180" y="-151"/>
      <point x="205" y="-106"/>
      <point x="205" y="-81" type="qcurve" smooth="yes"/>
      <point x="205" y="-60"/>
      <point x="184" y="-23"/>
      <point x="172.0" y="-4.0" type="qcurve" smooth="yes" name="inserted"/>
      <point x="160" y="15"/>
      <point x="139" y="58"/>
      <point x="139" y="87" type="qcurve" smooth="yes"/>
      <point x="139" y="118"/>
      <point x="162" y="174"/>
      <point x="182.5" y="194.0" type="qcurve" smooth="yes" name="inserted"/>
      <point x="203" y="214"/>
      <point x="257" y="238"/>
      <point x="289" y="238" type="qcurve" smooth="yes"/>
      <point x="319" y="238"/>
      <point x="373" y="214"/>
      <point x="393.5" y="194.0" type="qcurve" smooth="yes" name="inserted"/>
      <point x="414" y="174"/>
      <point x="437" y="118"/>
    </contour>
  </outline>
</glyph>
<glyph name="period" format="1">
  <advance width="549"/>
  <unicode hex="002E"/>
  <outline>
    <contour>
      <point x="272" y="244" type="qcurve" smooth="yes"/>
      <point x="327" y="244"/>
      <point x="395" y="182"/>
      <point x="395" y="113" type="qcurve" smooth="yes"/>
      <point x="395" y="49"/>
      <point x="329" y="-21"/>
      <point x="272" y="-21" type="qcurve" smooth="yes"/>
      <point x="218" y="-21"/>
      <point x="153" y="46"/>
      <point x="153" y="113" type="qcurve" smooth="yes"/>
      <point x="153" y="179"/>
      <point x="215" y="244"/>
    </contour>
  </outline>
</glyph>
<glyph name="two" format="1">
  <advance width="1313"/>
  <unicode hex="0032"/>
  <outline>
    <contour>
      <point x="859" y="409" type="qcurve" smooth="yes"/>
      <point x="833" y="388"/>
      <point x="778" y="344"/>
      <point x="751" y="323" type="qcurve"/>
      <point x="728" y="300"/>
      <point x="675" y="255"/>
      <point x="649" y="231" type="qcurve"/>
      <point x="1233" y="231" type="line"/>
      <point x="1233" y="16" type="line"/>
      <point x="89" y="16" type="line"/>
      <point x="286" y="199" type="line" smooth="yes"/>
      <point x="351" y="261"/>
      <point x="466" y="365"/>
      <point x="518" y="409" type="qcurve" smooth="yes"/>
      <point x="572" y="454"/>
      <point x="665" y="532"/>
      <point x="706" y="567" type="qcurve" smooth="yes"/>
      <point x="753" y="606"/>
      <point x="829" y="671"/>
      <point x="857" y="700" type="qcurve"/>
      <point x="886" y="725"/>
      <point x="931" y="772"/>
      <point x="948" y="793" type="qcurve" smooth="yes"/>
      <point x="963.5" y="813.0" name="inserted"/>
      <point x="985.0" y="852.0"/>
      <point x="991" y="871" type="qcurve" smooth="yes"/>
      <point x="996" y="890"/>
      <point x="1003" y="933"/>
      <point x="1003" y="957" type="qcurve" smooth="yes"/>
      <point x="1003.0" y="987.5" name="inserted"/>
      <point x="990.5" y="1047.0"/>
      <point x="978" y="1076" type="qcurve" smooth="yes"/>
      <point x="965" y="1105"/>
      <point x="934" y="1153"/>
      <point x="911" y="1174" type="qcurve"/>
      <point x="891" y="1197"/>
      <point x="841" y="1228"/>
      <point x="814" y="1240" type="qcurve" smooth="yes"/>
      <point x="784.5" y="1252.5" name="inserted"/>
      <point x="723.5" y="1265.0"/>
      <point x="692" y="1265" type="qcurve" smooth="yes"/>
      <point x="631.5" y="1265.0" name="inserted"/>
      <point x="529.0" y="1227.5"/>
      <point x="487" y="1190" type="qcurve" smooth="yes"/>
      <point x="443.5" y="1154.0" name="inserted"/>
      <point x="389.5" y="1061.5"/>
      <point x="379" y="1005" type="qcurve"/>
      <point x="379" y="999" type="line"/>
      <point x="153" y="1037" type="line"/>
      <point x="156" y="1043" type="line"/>
      <point x="163" y="1091"/>
      <point x="195" y="1175"/>
      <point x="219" y="1215" type="qcurve" smooth="yes"/>
      <point x="244" y="1255"/>
      <point x="302" y="1325"/>
      <point x="338" y="1354" type="qcurve" smooth="yes"/>
      <point x="373" y="1383"/>
      <point x="454" y="1428"/>
      <point x="500" y="1445" type="qcurve" smooth="yes"/>
      <point x="545" y="1461"/>
      <point x="642" y="1478"/>
      <point x="692" y="1478" type="qcurve" smooth="yes"/>
      <point x="749.0" y="1478.0" name="inserted"/>
      <point x="854.0" y="1457.0"/>
      <point x="902" y="1436" type="qcurve" smooth="yes"/>
      <point x="953" y="1416"/>
      <point x="1038" y="1360"/>
      <point x="1076" y="1325" type="qcurve" smooth="yes"/>
      <point x="1112" y="1290"/>
      <point x="1172" y="1207"/>
      <point x="1192" y="1160" type="qcurve" smooth="yes"/>
      <point x="1212" y="1112"/>
      <point x="1235" y="1012"/>
      <point x="1235" y="957" type="qcurve" smooth="yes"/>
      <point x="1235" y="914"/>
      <point x="1224" y="836"/>
      <point x="1213" y="804" type="qcurve" smooth="yes"/>
      <point x="1201" y="772"/>
      <point x="1164" y="710"/>
      <point x="1141" y="678" type="qcurve" smooth="yes"/>
      <point x="1118" y="647"/>
      <point x="1060" y="586"/>
      <point x="1023" y="553" type="qcurve" smooth="yes"/>
      <point x="989" y="520"/>
      <point x="905" y="448"/>
    </contour>
  </outline>
</glyph>
<glyph name="three" format="1">
  <advance width="1241"/>
  <unicode hex="0033"/>
  <outline>
    <contour>
      <point x="1055" y="707" type="qcurve" smooth="yes"/>
      <point x="1112" y="652"/>
      <point x="1177" y="506"/>
      <point x="1177" y="430" type="qcurve" smooth="yes"/>
      <point x="1177" y="336"/>
      <point x="1088" y="176"/>
      <point x="1011.0" y="117.5" type="qcurve" smooth="yes" name="inserted"/>
      <point x="934" y="59"/>
      <point x="724" y="-7"/>
      <point x="604" y="-7" type="qcurve" smooth="yes"/>
      <point x="510" y="-7"/>
      <point x="338" y="34"/>
      <point x="266.0" y="71.0" type="qcurve" smooth="yes" name="inserted"/>
      <point x="194" y="108"/>
      <point x="83" y="211"/>
      <point x="50" y="273" type="qcurve" smooth="yes"/>
      <point x="47" y="279" type="line"/>
      <point x="251" y="377" type="line"/>
      <point x="256" y="370" type="line"/>
      <point x="275" y="336"/>
      <point x="343" y="277"/>
      <point x="388.5" y="255.5" type="qcurve" smooth="yes" name="inserted"/>
      <point x="434" y="234"/>
      <point x="544" y="209"/>
      <point x="604" y="209" type="qcurve" smooth="yes"/>
      <point x="674" y="209"/>
      <point x="798" y="243"/>
      <point x="845.0" y="272.5" type="qcurve" smooth="yes" name="inserted"/>
      <point x="892" y="302"/>
      <point x="947" y="383"/>
      <point x="947" y="430" type="qcurve" smooth="yes"/>
      <point x="947.0" y="453.0" name="inserted"/>
      <point x="932.5" y="495.0"/>
      <point x="918" y="514" type="qcurve"/>
      <point x="898" y="548"/>
      <point x="833" y="599"/>
      <point x="791.5" y="615.5" type="qcurve" smooth="yes" name="inserted"/>
      <point x="750" y="632"/>
      <point x="654" y="649"/>
      <point x="604" y="649" type="qcurve" smooth="yes"/>
      <point x="467" y="649" type="line"/>
      <point x="409" y="809" type="line"/>
      <point x="828" y="1262" type="line"/>
      <point x="163" y="1262" type="line"/>
      <point x="163" y="1479" type="line"/>
      <point x="1140" y="1479" type="line"/>
      <point x="1140" y="1267" type="line"/>
      <point x="756" y="851" type="line"/>
      <point x="851" y="831"/>
      <point x="1000" y="758"/>
    </contour>
  </outline>
</glyph>
<glyph name="question" format="1">
  <advance width="1043"/>
  <unicode hex="003F"/>
  <outline>
    <contour>
      <point x="461" y="340" type="line"/>
      <point x="460" y="347"/>
      <point x="460" y="361"/>
      <point x="460" y="368" type="qcurve" smooth="yes"/>
      <point x="460" y="462"/>
      <point x="522" y="642"/>
      <point x="582" y="718" type="qcurve" smooth="yes"/>
      <point x="620" y="766"/>
      <point x="701" y="843"/>
      <point x="734.0" y="881.0" type="qcurve" smooth="yes" name="inserted"/>
      <point x="767" y="919"/>
      <point x="810" y="1006"/>
      <point x="810" y="1065" type="qcurve" smooth="yes"/>
      <point x="810" y="1124"/>
      <point x="763" y="1229"/>
      <point x="722.5" y="1269.0" type="qcurve" smooth="yes" name="inserted"/>
      <point x="682" y="1309"/>
      <point x="575" y="1355"/>
      <point x="515" y="1355" type="qcurve" smooth="yes"/>
      <point x="461" y="1355"/>
      <point x="361" y="1315"/>
      <point x="322.0" y="1280.0" type="qcurve" smooth="yes" name="inserted"/>
      <point x="283" y="1245"/>
      <point x="237" y="1149"/>
      <point x="237" y="1094" type="qcurve" smooth="yes"/>
      <point x="237" y="1039"/>
      <point x="280" y="941"/>
      <point x="321" y="904" type="qcurve"/>
      <point x="215" y="785" type="line"/>
      <point x="150" y="844"/>
      <point x="78" y="1002"/>
      <point x="78" y="1096" type="qcurve" smooth="yes"/>
      <point x="78" y="1181"/>
      <point x="146" y="1332"/>
      <point x="205.5" y="1389.0" type="qcurve" smooth="yes" name="inserted"/>
      <point x="265" y="1446"/>
      <point x="423" y="1513"/>
      <point x="513" y="1513" type="qcurve" smooth="yes"/>
      <point x="600" y="1513"/>
      <point x="764" y="1446"/>
      <point x="827.5" y="1386.5" type="qcurve" smooth="yes" name="inserted"/>
      <point x="891" y="1327"/>
      <point x="969" y="1164"/>
      <point x="969" y="1068" type="qcurve" smooth="yes"/>
      <point x="969" y="1011"/>
      <point x="941" y="905"/>
      <point x="915" y="857" type="qcurve" smooth="yes"/>
      <point x="894" y="819"/>
      <point x="839" y="756"/>
      <point x="810.5" y="727.5" type="qcurve" smooth="yes" name="inserted"/>
      <point x="782" y="699"/>
      <point x="728" y="646"/>
      <point x="708" y="619" type="qcurve" smooth="yes"/>
      <point x="666" y="567"/>
      <point x="621" y="433"/>
      <point x="621" y="367" type="qcurve" smooth="yes"/>
      <point x="621" y="360"/>
      <point x="621" y="347"/>
      <point x="622" y="340" type="qcurve"/>
    </contour>
    <contour>
      <point x="662" y="115" type="qcurve" smooth="yes"/>
      <point x="662" y="90"/>
      <point x="643" y="46"/>
      <point x="627.0" y="30.0" type="qcurve" smooth="yes" name="inserted"/>
      <point x="611" y="14"/>
      <point x="568" y="-4"/>
      <point x="544" y="-4" type="qcurve" smooth="yes"/>
      <point x="520" y="-4"/>
      <point x="477" y="14"/>
      <point x="461.0" y="30.0" type="qcurve" smooth="yes" name="inserted"/>
      <point x="445" y="46"/>
      <point x="426" y="90"/>
      <point x="426" y="115" type="qcurve" smooth="yes"/>
      <point x="426" y="139"/>
      <point x="445" y="181"/>
      <point x="461.0" y="197.0" type="qcurve" smooth="yes" name="inserted"/>
      <point x="477" y="213"/>
      <point x="520" y="231"/>
      <point x="544" y="231" type="qcurve" smooth="yes"/>
      <point x="568" y="231"/>
      <point x="611" y="213"/>
      <point x="627.0" y="197.0" type="qcurve" smooth="yes" name="inserted"/>
      <point x="643" y="181"/>
      <point x="662" y="139"/>
    </contour>
  </outline>
</glyph>
<glyph name="braceleft" format="1">
  <advance width="798"/>
  <unicode hex="007B"/>
  <outline>
    <contour>
      <point x="51" y="666" type="line"/>
      <point x="182" y="667"/>
      <point x="306" y="757"/>
      <point x="306" y="857" type="qcurve" smooth="yes"/>
      <point x="306" y="1314" type="line" smooth="yes"/>
      <point x="306.0" y="1391.0" name="inserted"/>
      <point x="359.0" y="1510.0"/>
      <point x="412" y="1552" type="qcurve" smooth="yes"/>
      <point x="465.0" y="1594.5" name="inserted"/>
      <point x="612.5" y="1637.0"/>
      <point x="707" y="1637" type="qcurve"/>
      <point x="707" y="1502" type="line"/>
      <point x="587.0" y="1499.0" name="inserted"/>
      <point x="467.0" y="1402.5"/>
      <point x="467" y="1309" type="qcurve" smooth="yes"/>
      <point x="467" y="854" type="line" smooth="yes"/>
      <point x="467.0" y="748.0" name="inserted"/>
      <point x="361.5" y="623.5"/>
      <point x="256" y="605" type="qcurve"/>
      <point x="256" y="592" type="line"/>
      <point x="361.5" y="573.5" name="inserted"/>
      <point x="467.0" y="448.5"/>
      <point x="467" y="342" type="qcurve" smooth="yes"/>
      <point x="467" y="-117" type="line" smooth="yes"/>
      <point x="467.0" y="-211.5" name="inserted"/>
      <point x="587.0" y="-306.5"/>
      <point x="707" y="-307" type="qcurve"/>
      <point x="707" y="-443" type="line"/>
      <point x="511" y="-442"/>
      <point x="306" y="-275"/>
      <point x="306" y="-117" type="qcurve" smooth="yes"/>
      <point x="306" y="336" type="line" smooth="yes"/>
      <point x="306" y="433"/>
      <point x="184" y="529"/>
      <point x="51" y="529" type="qcurve"/>
    </contour>
  </outline>
</glyph>
<glyph name="bar" format="1">
  <advance width="1128"/>
  <unicode hex="007C"/>
  <outline>
    <contour>
      <point x="489" y="1637" type="line"/>
      <point x="639" y="1637" type="line"/>
      <point x="639" y="-442" type="line"/>
      <point x="489" y="-442" type="line"/>
    </contour>
  </outline>
</glyph>
<glyph name="braceright" format="1">
  <advance width="798"/>
  <unicode hex="007D"/>
  <outline>
    <contour>
      <point x="747" y="528" type="line"/>
      <point x="612" y="526"/>
      <point x="492" y="434"/>
      <point x="492" y="337" type="qcurve" smooth="yes"/>
      <point x="492" y="-120" type="line" smooth="yes"/>
      <point x="492.0" y="-197.0" name="inserted"/>
      <point x="438.5" y="-316.0"/>
      <point x="385" y="-358" type="qcurve" smooth="yes"/>
      <point x="332.0" y="-400.5" name="inserted"/>
      <point x="185.0" y="-443.0"/>
      <point x="91" y="-443" type="qcurve"/>
      <point x="91" y="-308" type="line"/>
      <point x="211.0" y="-305.0" name="inserted"/>
      <point x="331.0" y="-208.5"/>
      <point x="331" y="-115" type="qcurve" smooth="yes"/>
      <point x="331" y="340" type="line" smooth="yes"/>
      <point x="331.0" y="446.0" name="inserted"/>
      <point x="436.5" y="570.5"/>
      <point x="542" y="589" type="qcurve"/>
      <point x="542" y="602" type="line"/>
      <point x="436.5" y="620.5" name="inserted"/>
      <point x="331.0" y="745.5"/>
      <point x="331" y="852" type="qcurve" smooth="yes"/>
      <point x="331" y="1311" type="line" smooth="yes"/>
      <point x="331" y="1407"/>
      <point x="214" y="1499"/>
      <point x="91" y="1501" type="qcurve"/>
      <point x="91" y="1637" type="line"/>
      <point x="292" y="1634"/>
      <point x="492" y="1467"/>
      <point x="492" y="1311" type="qcurve" smooth="yes"/>
      <point x="492" y="858" type="line" smooth="yes"/>
      <point x="492" y="761"/>
      <point x="614" y="665"/>
      <point x="747" y="665" type="qcurve"/>
    </contour>
  </outline>
</glyph>
<glyph name="uni0D9A" format="1">
  <advance width="2153"/>
  <unicode hex="0D9A"/>
  <outline>
    <contour>
      <point x="926" y="158" type="qcurve" smooth="yes"/>
      <point x="945" y="158"/>
      <point x="993" y="169"/>
      <point x="1014.0" y="185.5" type="qcurve" smooth="yes" name="inserted"/>
      <point x="1035" y="202"/>
      <point x="1063" y="264"/>
      <point x="1063" y="315" type="qcurve" smooth="yes"/>
      <point x="1063" y="678" type="line"/>
      <point x="1024" y="678" type="line"/>
      <point x="787" y="677" type="line" smooth="yes"/>
      <point x="738" y="677"/>
      <point x="640" y="676"/>
      <point x="593.0" y="673.0" type="qcurve" smooth="yes" name="inserted"/>
      <point x="546" y="670"/>
      <point x="456" y="657"/>
      <point x="414" y="644" type="qcurve" smooth="yes"/>
      <point x="360" y="627"/>
      <point x="277" y="576"/>
      <point x="248.5" y="545.0" type="qcurve" smooth="yes" name="inserted"/>
      <point x="220" y="514"/>
      <point x="190" y="442"/>
      <point x="190" y="405" type="qcurve" smooth="yes"/>
      <point x="190" y="350"/>
      <point x="239" y="260"/>
      <point x="280.5" y="227.5" type="qcurve" smooth="yes" name="inserted"/>
      <point x="322" y="195"/>
      <point x="429" y="160"/>
      <point x="488" y="160" type="qcurve" smooth="yes"/>
      <point x="508" y="160"/>
      <point x="556" y="171"/>
      <point x="576.5" y="182.5" type="qcurve" smooth="yes" name="inserted"/>
      <point x="597" y="194"/>
      <point x="625" y="227"/>
      <point x="625" y="249" type="qcurve"/>
      <point x="627" y="249" type="line"/>
      <point x="627" y="255" type="line"/>
      <point x="807" y="258" type="line"/>
      <point x="808" y="256"/>
      <point x="808" y="252"/>
      <point x="809" y="249" type="qcurve"/>
      <point x="811" y="249" type="line"/>
      <point x="811" y="248"/>
      <point x="809" y="246"/>
      <point x="809" y="245" type="qcurve"/>
      <point x="813" y="234"/>
      <point x="828" y="204"/>
      <point x="841.5" y="190.5" type="qcurve" smooth="yes" name="inserted"/>
      <point x="855" y="177"/>
      <point x="896" y="158"/>
    </contour>
    <contour>
      <point x="2046" y="437" type="qcurve" smooth="yes"/>
      <point x="2047" y="427"/>
      <point x="2048" y="406"/>
      <point x="2048" y="395" type="qcurve" smooth="yes"/>
      <point x="2048" y="305"/>
      <point x="1979" y="151"/>
      <point x="1921.0" y="94.5" type="qcurve" smooth="yes" name="inserted"/>
      <point x="1863" y="38"/>
      <point x="1711" y="-25"/>
      <point x="1628" y="-25" type="qcurve" smooth="yes"/>
      <point x="1532" y="-25"/>
      <point x="1360" y="61"/>
      <point x="1302" y="135" type="qcurve"/>
      <point x="1449" y="248" type="line"/>
      <point x="1481" y="206"/>
      <point x="1579" y="161"/>
      <point x="1631" y="161" type="qcurve" smooth="yes"/>
      <point x="1681" y="161"/>
      <point x="1766" y="201"/>
      <point x="1797.0" y="233.5" type="qcurve" smooth="yes" name="inserted"/>
      <point x="1828" y="266"/>
      <point x="1863" y="350"/>
      <point x="1863" y="394" type="qcurve" smooth="yes"/>
      <point x="1863" y="435"/>
      <point x="1833" y="516"/>
      <point x="1805" y="551" type="qcurve" smooth="yes"/>
      <point x="1764" y="603"/>
      <point x="1641" y="657"/>
      <point x="1567.5" y="668.0" type="qcurve" smooth="yes" name="inserted"/>
      <point x="1494" y="679"/>
      <point x="1331" y="681"/>
      <point x="1251" y="681" type="qcurve"/>
      <point x="1251" y="629"/>
      <point x="1250" y="520"/>
      <point x="1249.0" y="470.5" type="qcurve" smooth="yes" name="inserted"/>
      <point x="1248" y="421"/>
      <point x="1247" y="339"/>
      <point x="1247" y="315" type="qcurve" smooth="yes"/>
      <point x="1247" y="227"/>
      <point x="1192" y="98"/>
      <point x="1147.0" y="56.0" type="qcurve" smooth="yes" name="inserted"/>
      <point x="1102" y="14"/>
      <point x="986" y="-26"/>
      <point x="926" y="-26" type="qcurve" smooth="yes"/>
      <point x="857" y="-26"/>
      <point x="752" y="21"/>
      <point x="717" y="56" type="qcurve"/>
      <point x="666" y="12"/>
      <point x="551" y="-26"/>
      <point x="490" y="-26" type="qcurve" smooth="yes"/>
      <point x="387" y="-26"/>
      <point x="210" y="43"/>
      <point x="145.0" y="102.0" type="qcurve" smooth="yes" name="inserted"/>
      <point x="80" y="161"/>
      <point x="6" y="318"/>
      <point x="6" y="405" type="qcurve" smooth="yes"/>
      <point x="6" y="490"/>
      <point x="80" y="648"/>
      <point x="147" y="707" type="qcurve" smooth="yes"/>
      <point x="212" y="764"/>
      <point x="369" y="826"/>
      <point x="453.0" y="841.0" type="qcurve" smooth="yes" name="inserted"/>
      <point x="537" y="856"/>
      <point x="707" y="861"/>
      <point x="784" y="861" type="qcurve" smooth="yes"/>
      <point x="1024" y="865" type="line"/>
      <point x="1065" y="865" type="line"/>
      <point x="1065" y="917" type="line" smooth="yes"/>
      <point x="1065" y="1014"/>
      <point x="1119" y="1196"/>
      <point x="1154" y="1284" type="qcurve"/>
      <point x="889" y="1284" type="line"/>
      <point x="808" y="1282" type="line" smooth="yes"/>
      <point x="791" y="1282"/>
      <point x="718" y="1276"/>
      <point x="681.0" y="1265.5" type="qcurve" smooth="yes" name="inserted"/>
      <point x="644" y="1255"/>
      <point x="589" y="1212"/>
      <point x="589" y="1174" type="qcurve" smooth="yes"/>
      <point x="589" y="1140"/>
      <point x="637" y="1098"/>
      <point x="667" y="1098" type="qcurve" smooth="yes"/>
      <point x="699" y="1098"/>
      <point x="747" y="1144"/>
      <point x="747" y="1178" type="qcurve"/>
      <point x="933" y="1183" type="line"/>
      <point x="933" y="1130"/>
      <point x="893" y="1032"/>
      <point x="857.5" y="994.0" type="qcurve" smooth="yes" name="inserted"/>
      <point x="822" y="956"/>
      <point x="725" y="911"/>
      <point x="668" y="911" type="qcurve" smooth="yes"/>
      <point x="614" y="911"/>
      <point x="518" y="952"/>
      <point x="482.5" y="987.5" type="qcurve" smooth="yes" name="inserted"/>
      <point x="447" y="1023"/>
      <point x="405" y="1119"/>
      <point x="405" y="1174" type="qcurve" smooth="yes"/>
      <point x="405" y="1249"/>
      <point x="472" y="1358"/>
      <point x="525.0" y="1393.5" type="qcurve" smooth="yes" name="inserted"/>
      <point x="578" y="1429"/>
      <point x="708" y="1463"/>
      <point x="770" y="1463" type="qcurve" smooth="yes"/>
      <point x="867" y="1463" type="line"/>
      <point x="872" y="1463" type="line"/>
      <point x="1290" y="1463" type="line"/>
      <point x="1432" y="1463" type="line"/>
      <point x="1380" y="1344" type="line"/>
      <point x="1360" y="1289"/>
      <point x="1314" y="1181"/>
      <point x="1295.0" y="1128.0" type="qcurve" smooth="yes" name="inserted"/>
      <point x="1276" y="1075"/>
      <point x="1251" y="969"/>
      <point x="1251" y="917" type="qcurve" smooth="yes"/>
      <point x="1251" y="865" type="line"/>
      <point x="1471" y="865" type="line" smooth="yes"/>
      <point x="1587" y="863"/>
      <point x="1788" y="803"/>
      <point x="1864.5" y="747.5" type="qcurve" smooth="yes" name="inserted"/>
      <point x="1941" y="692"/>
      <point x="2037" y="535"/>
    </contour>
  </outline>
</glyph>
<glyph name="uni0D9E" format="1">
  <advance width="1824"/>
  <unicode hex="0D9E"/>
  <outline>
    <contour>
      <point x="1741" y="712" type="qcurve" smooth="yes"/>
      <point x="1741" y="345"/>
      <point x="1491" y="-22"/>
      <point x="1241" y="-22" type="qcurve" smooth="yes"/>
      <point x="1138" y="-22"/>
      <point x="978" y="64"/>
      <point x="909" y="158" type="qcurve"/>
      <point x="876" y="108"/>
      <point x="802" y="40"/>
      <point x="759.5" y="18.5" type="qcurve" smooth="yes" name="inserted"/>
      <point x="717" y="-3"/>
      <point x="620" y="-22"/>
      <point x="563" y="-22" type="qcurve" smooth="yes"/>
      <point x="468.5" y="-22.0" name="inserted"/>
      <point x="318.5" y="30.5"/>
      <point x="263" y="83" type="qcurve" smooth="yes"/>
      <point x="208.0" y="136.5" name="inserted"/>
      <point x="153.0" y="282.0"/>
      <point x="153" y="374" type="qcurve" smooth="yes"/>
      <point x="153.0" y="457.0" name="inserted"/>
      <point x="203.5" y="590.5"/>
      <point x="254" y="641" type="qcurve" smooth="yes"/>
      <point x="304.5" y="691.5" name="inserted"/>
      <point x="474.5" y="777.5"/>
      <point x="594" y="813" type="qcurve" smooth="yes"/>
      <point x="665" y="834" type="line" smooth="yes"/>
      <point x="707" y="846"/>
      <point x="765" y="865"/>
      <point x="784" y="873" type="qcurve" smooth="yes"/>
      <point x="822" y="889"/>
      <point x="860" y="938"/>
      <point x="860" y="980" type="qcurve" smooth="yes"/>
      <point x="860" y="1052"/>
      <point x="687" y="1119"/>
      <point x="509" y="1119" type="qcurve" smooth="yes"/>
      <point x="503" y="1119" type="line"/>
      <point x="524" y="1086"/>
      <point x="546" y="1006"/>
      <point x="546" y="971" type="qcurve" smooth="yes"/>
      <point x="546.0" y="915.0" name="inserted"/>
      <point x="510.0" y="830.0"/>
      <point x="474" y="801" type="qcurve" smooth="yes"/>
      <point x="438.5" y="771.5" name="inserted"/>
      <point x="349.0" y="742.0"/>
      <point x="295" y="742" type="qcurve" smooth="yes"/>
      <point x="237.5" y="742.0" name="inserted"/>
      <point x="148.0" y="772.5"/>
      <point x="116" y="803" type="qcurve" smooth="yes"/>
      <point x="84.0" y="833.5" name="inserted"/>
      <point x="52.0" y="914.5"/>
      <point x="52" y="965" type="qcurve" smooth="yes"/>
      <point x="52" y="1032"/>
      <point x="113" y="1140"/>
      <point x="173.0" y="1177.0" type="qcurve" smooth="yes" name="inserted"/>
      <point x="233" y="1214"/>
      <point x="409" y="1254"/>
      <point x="524" y="1254" type="qcurve" smooth="yes"/>
      <point x="766.5" y="1254.0" name="inserted"/>
      <point x="1009.0" y="1116.0"/>
      <point x="1009" y="978" type="qcurve"/>
      <point x="1008" y="916"/>
      <point x="965" y="831"/>
      <point x="921.0" y="799.5" type="qcurve" smooth="yes" name="inserted"/>
      <point x="877" y="768"/>
      <point x="744" y="719"/>
      <point x="653" y="694" type="qcurve" smooth="yes"/>
      <point x="558.0" y="670.0" name="inserted"/>
      <point x="423.0" y="608.0"/>
      <point x="383" y="570" type="qcurve" smooth="yes"/>
      <point x="343.0" y="532.5" name="inserted"/>
      <point x="303.0" y="434.5"/>
      <point x="303" y="374" type="qcurve" smooth="yes"/>
      <point x="303" y="251"/>
      <point x="438" y="124"/>
      <point x="568" y="124" type="qcurve" smooth="yes"/>
      <point x="707" y="124"/>
      <point x="842" y="265"/>
      <point x="842" y="425" type="qcurve" smooth="yes"/>
      <point x="842" y="439" type="line"/>
      <point x="980" y="439" type="line"/>
      <point x="980" y="425" type="line" smooth="yes"/>
      <point x="980" y="272"/>
      <point x="1107" y="124"/>
      <point x="1239" y="124" type="qcurve" smooth="yes"/>
      <point x="1412.5" y="124.0" name="inserted"/>
      <point x="1586.0" y="415.5"/>
      <point x="1586" y="707" type="qcurve" smooth="yes"/>
      <point x="1586" y="1135"/>
      <point x="1220" y="1569"/>
      <point x="861" y="1569" type="qcurve" smooth="yes"/>
      <point x="689" y="1569"/>
      <point x="386" y="1491"/>
      <point x="240" y="1405" type="qcurve"/>
      <point x="173" y="1539" type="line"/>
      <point x="333" y="1629"/>
      <point x="674" y="1713"/>
      <point x="870" y="1713" type="qcurve" smooth="yes"/>
      <point x="1081.5" y="1713.0" name="inserted"/>
      <point x="1405.0" y="1585.5"/>
      <point x="1517" y="1458" type="qcurve" smooth="yes"/>
      <point x="1629.0" y="1330.0" name="inserted"/>
      <point x="1741.0" y="957.0"/>
    </contour>
    <contour>
      <point x="367" y="1109" type="qcurve"/>
      <point x="279" y="1096"/>
      <point x="197" y="1024"/>
      <point x="197" y="976" type="qcurve" smooth="yes"/>
      <point x="197" y="928"/>
      <point x="250" y="874"/>
      <point x="301" y="874" type="qcurve" smooth="yes"/>
      <point x="355" y="874"/>
      <point x="407" y="929"/>
      <point x="407" y="978" type="qcurve" smooth="yes"/>
      <point x="407.0" y="1017.5" name="inserted"/>
      <point x="387.0" y="1083.0"/>
    </contour>
  </outline>
</glyph>
<glyph name="uni0DA3" format="1">
  <advance width="2937"/>
  <unicode hex="0DA3"/>
  <outline>
    <contour>
      <point x="2854" y="712" type="qcurve" smooth="yes"/>
      <point x="2854" y="348"/>
      <point x="2608" y="-22"/>
      <point x="2366" y="-22" type="qcurve" smooth="yes"/>
      <point x="2267" y="-22"/>
      <point x="2111" y="62"/>
      <point x="2044" y="158" type="qcurve"/>
      <point x="2009.0" y="107.5" name="inserted"/>
      <point x="1935.0" y="37.0"/>
      <point x="1896" y="17" type="qcurve" smooth="yes"/>
      <point x="1857.5" y="-2.5" name="inserted"/>
      <point x="1762.5" y="-22.0"/>
      <point x="1706" y="-22" type="qcurve" smooth="yes"/>
      <point x="1597" y="-22"/>
      <point x="1436" y="75"/>
      <point x="1390" y="169" type="qcurve"/>
      <point x="1350" y="75"/>
      <point x="1211" y="-22"/>
      <point x="1117" y="-22" type="qcurve" smooth="yes"/>
      <point x="1020.5" y="-22.0" name="inserted"/>
      <point x="870.0" y="68.0"/>
      <point x="816" y="158" type="qcurve"/>
      <point x="766" y="64"/>
      <point x="630" y="-22"/>
      <point x="529" y="-22" type="qcurve" smooth="yes"/>
      <point x="454.5" y="-22.0" name="inserted"/>
      <point x="335.0" y="24.5"/>
      <point x="290" y="71" type="qcurve" smooth="yes"/>
      <point x="245.5" y="118.0" name="inserted"/>
      <point x="200.5" y="253.0"/>
      <point x="200" y="341" type="qcurve"/>
      <point x="174" y="295" type="line"/>
      <point x="44" y="368" type="line"/>
      <point x="178.5" y="560.0" name="inserted"/>
      <point x="405.5" y="836.0"/>
      <point x="498" y="920" type="qcurve"/>
      <point x="478.0" y="998.5" name="inserted"/>
      <point x="401.5" y="1077.0"/>
      <point x="345" y="1077" type="qcurve" smooth="yes"/>
      <point x="285" y="1077"/>
      <point x="216" y="1012"/>
      <point x="216" y="940" type="qcurve" smooth="yes"/>
      <point x="216.0" y="916.5" name="inserted"/>
      <point x="227.0" y="859.5"/>
      <point x="238" y="826" type="qcurve"/>
      <point x="95" y="797" type="line"/>
      <point x="81.5" y="838.0" name="inserted"/>
      <point x="68.0" y="918.0"/>
      <point x="68" y="957" type="qcurve" smooth="yes"/>
      <point x="68" y="1017"/>
      <point x="106" y="1112"/>
      <point x="141.5" y="1145.0" type="qcurve" smooth="yes" name="inserted"/>
      <point x="177" y="1178"/>
      <point x="279" y="1213"/>
      <point x="343" y="1213" type="qcurve" smooth="yes"/>
      <point x="439" y="1213"/>
      <point x="572" y="1112"/>
      <point x="607" y="1016" type="qcurve"/>
      <point x="680" y="1076"/>
      <point x="829" y="1165"/>
      <point x="907" y="1194" type="qcurve" smooth="yes"/>
      <point x="984.0" y="1224.0" name="inserted"/>
      <point x="1171.5" y="1254.0"/>
      <point x="1282" y="1254" type="qcurve" smooth="yes"/>
      <point x="1455.5" y="1254.0" name="inserted"/>
      <point x="1768.0" y="1129.5"/>
      <point x="1907" y="1005" type="qcurve"/>
      <point x="1854" y="854" type="line"/>
      <point x="1761" y="849"/>
      <point x="1614" y="787"/>
      <point x="1563.0" y="734.5" type="qcurve" smooth="yes" name="inserted"/>
      <point x="1512" y="682"/>
      <point x="1458" y="537"/>
      <point x="1458" y="450" type="qcurve" smooth="yes"/>
      <point x="1458" y="292"/>
      <point x="1593" y="124"/>
      <point x="1721" y="124" type="qcurve" smooth="yes"/>
      <point x="1846" y="124"/>
      <point x="1976" y="269"/>
      <point x="1976" y="425" type="qcurve" smooth="yes"/>
      <point x="1976" y="439" type="line"/>
      <point x="2113" y="439" type="line"/>
      <point x="2113" y="425" type="line" smooth="yes"/>
      <point x="2113" y="272"/>
      <point x="2236" y="124"/>
      <point x="2363" y="124" type="qcurve" smooth="yes"/>
      <point x="2531.0" y="124.0" name="inserted"/>
      <point x="2699.0" y="415.5"/>
      <point x="2699" y="707" type="qcurve" smooth="yes"/>
      <point x="2699" y="1135"/>
      <point x="2344" y="1569"/>
      <point x="1996" y="1569" type="qcurve" smooth="yes"/>
      <point x="1910.0" y="1569.0" name="inserted"/>
      <point x="1752.0" y="1550.0"/>
      <point x="1680" y="1531" type="qcurve" smooth="yes"/>
      <point x="1609.5" y="1512.5" name="inserted"/>
      <point x="1466.0" y="1449.5"/>
      <point x="1393" y="1405" type="qcurve"/>
      <point x="1326" y="1539" type="line"/>
      <point x="1484" y="1630"/>
      <point x="1816" y="1713"/>
      <point x="2005" y="1713" type="qcurve" smooth="yes"/>
      <point x="2211.0" y="1713.0" name="inserted"/>
      <point x="2526.0" y="1586.0"/>
      <point x="2635" y="1459" type="qcurve" smooth="yes"/>
      <point x="2744.5" y="1332.0" name="inserted"/>
      <point x="2854.0" y="958.5"/>
    </contour>
    <contour>
      <point x="651" y="883" type="qcurve"/>
      <point x="700.5" y="901.0" name="inserted"/>
      <point x="819.0" y="919.0"/>
      <point x="888" y="919" type="qcurve" smooth="yes"/>
      <point x="1059" y="919"/>
      <point x="1303" y="798"/>
      <point x="1367" y="678" type="qcurve"/>
      <point x="1412.5" y="799.5" name="inserted"/>
      <point x="1593.5" y="946.0"/>
      <point x="1729" y="971" type="qcurve"/>
      <point x="1672.0" y="1008.5" name="inserted"/>
      <point x="1561.5" y="1063.0"/>
      <point x="1508" y="1080" type="qcurve" smooth="yes"/>
      <point x="1456.5" y="1097.0" name="inserted"/>
      <point x="1339.5" y="1114.0"/>
      <point x="1274" y="1114" type="qcurve" smooth="yes"/>
      <point x="1181" y="1114"/>
      <point x="1014" y="1087"/>
      <point x="937.5" y="1058.5" type="qcurve" smooth="yes" name="inserted"/>
      <point x="861" y="1030"/>
      <point x="719" y="943"/>
    </contour>
    <contour>
      <point x="497" y="727" type="qcurve"/>
      <point x="452" y="676"/>
      <point x="341" y="533"/>
      <point x="274" y="439" type="qcurve"/>
      <point x="337" y="439" type="line"/>
      <point x="335" y="428"/>
      <point x="333" y="400"/>
      <point x="333" y="383" type="qcurve" smooth="yes"/>
      <point x="333" y="244"/>
      <point x="435" y="124"/>
      <point x="539" y="124" type="qcurve" smooth="yes"/>
      <point x="644" y="124"/>
      <point x="748" y="269"/>
      <point x="748" y="425" type="qcurve" smooth="yes"/>
      <point x="748" y="439" type="line"/>
      <point x="885" y="439" type="line"/>
      <point x="885" y="417" type="line" smooth="yes"/>
      <point x="885" y="349"/>
      <point x="914" y="241"/>
      <point x="941.5" y="203.0" type="qcurve" smooth="yes" name="inserted"/>
      <point x="969" y="165"/>
      <point x="1049" y="124"/>
      <point x="1100" y="124" type="qcurve" smooth="yes"/>
      <point x="1203" y="124"/>
      <point x="1312" y="256"/>
      <point x="1312" y="391" type="qcurve" smooth="yes"/>
      <point x="1312" y="580"/>
      <point x="1081" y="779"/>
      <point x="861" y="779" type="qcurve" smooth="yes"/>
      <point x="794" y="779"/>
      <point x="689" y="772"/>
      <point x="650" y="765" type="qcurve" smooth="yes"/>
      <point x="611" y="758"/>
      <point x="535" y="740"/>
    </contour>
  </outline>
</glyph>
<glyph name="uni0DA5" format="1">
  <advance width="2396"/>
  <unicode hex="0DA5"/>
  <outline>
    <contour>
      <point x="1941" y="-22" type="qcurve" smooth="yes"/>
      <point x="1750" y="-22"/>
      <point x="1486" y="99"/>
      <point x="1420" y="217" type="qcurve"/>
      <point x="1360" y="97"/>
      <point x="1129" y="-22"/>
      <point x="964" y="-22" type="qcurve" smooth="yes"/>
      <point x="827" y="-23"/>
      <point x="616" y="61"/>
      <point x="544.5" y="137.5" type="qcurve" smooth="yes" name="inserted"/>
      <point x="473" y="214"/>
      <point x="400" y="429"/>
      <point x="401" y="560" type="qcurve" smooth="yes"/>
      <point x="401.0" y="672.5" name="inserted"/>
      <point x="465.5" y="858.5"/>
      <point x="530" y="932" type="qcurve" smooth="yes"/>
      <point x="594.0" y="1006.0" name="inserted"/>
      <point x="773.5" y="1095.0"/>
      <point x="889" y="1110" type="qcurve"/>
      <point x="858" y="1117"/>
      <point x="773" y="1123"/>
      <point x="719" y="1123" type="qcurve" smooth="yes"/>
      <point x="609" y="1123"/>
      <point x="427" y="1052"/>
      <point x="362.0" y="986.0" type="qcurve" smooth="yes" name="inserted"/>
      <point x="297" y="920"/>
      <point x="226" y="735"/>
      <point x="227" y="622" type="qcurve" smooth="yes"/>
      <point x="227" y="514"/>
      <point x="282" y="314"/>
      <point x="333" y="238" type="qcurve"/>
      <point x="198" y="170" type="line"/>
      <point x="137.5" y="279.0" name="inserted"/>
      <point x="77.0" y="509.0"/>
      <point x="77" y="630" type="qcurve" smooth="yes"/>
      <point x="77.0" y="775.0" name="inserted"/>
      <point x="164.0" y="1003.5"/>
      <point x="251" y="1087" type="qcurve" smooth="yes"/>
      <point x="339.0" y="1170.5" name="inserted"/>
      <point x="573.0" y="1254.0"/>
      <point x="719" y="1254" type="qcurve" smooth="yes"/>
      <point x="810" y="1254"/>
      <point x="993" y="1206"/>
      <point x="1072" y="1160" type="qcurve"/>
      <point x="1018" y="1017" type="line"/>
      <point x="913" y="1013"/>
      <point x="743" y="947"/>
      <point x="682.0" y="887.5" type="qcurve" smooth="yes" name="inserted"/>
      <point x="621" y="828"/>
      <point x="555" y="657"/>
      <point x="555" y="548" type="qcurve" smooth="yes"/>
      <point x="555" y="340"/>
      <point x="768" y="124"/>
      <point x="973" y="124" type="qcurve" smooth="yes"/>
      <point x="1061.5" y="124.0" name="inserted"/>
      <point x="1199.0" y="168.5"/>
      <point x="1248" y="213" type="qcurve" smooth="yes"/>
      <point x="1297.0" y="258.0" name="inserted"/>
      <point x="1346.0" y="380.0"/>
      <point x="1346" y="457" type="qcurve" smooth="yes"/>
      <point x="1346.0" y="527.0" name="inserted"/>
      <point x="1297.0" y="597.0"/>
      <point x="1248" y="597" type="qcurve" smooth="yes"/>
      <point x="1217" y="597"/>
      <point x="1173" y="583"/>
      <point x="1145" y="561" type="qcurve"/>
      <point x="999" y="606" type="line"/>
      <point x="1024.0" y="766.5" name="inserted"/>
      <point x="1138.0" y="1008.5"/>
      <point x="1227" y="1090" type="qcurve" smooth="yes"/>
      <point x="1317.5" y="1172.0" name="inserted"/>
      <point x="1546.0" y="1254.0"/>
      <point x="1684" y="1254" type="qcurve" smooth="yes"/>
      <point x="1732.0" y="1254.0" name="inserted"/>
      <point x="1823.0" y="1248.0"/>
      <point x="1866" y="1242" type="qcurve"/>
      <point x="1890.5" y="1248.0" name="inserted"/>
      <point x="1949.0" y="1254.0"/>
      <point x="1983" y="1254" type="qcurve" smooth="yes"/>
      <point x="2155" y="1254"/>
      <point x="2336" y="1062"/>
      <point x="2336" y="880" type="qcurve" smooth="yes"/>
      <point x="2336" y="797" type="line"/>
      <point x="2021" y="797" type="line" smooth="yes"/>
      <point x="1933.5" y="797.0" name="inserted"/>
      <point x="1800.5" y="788.5"/>
      <point x="1755" y="780" type="qcurve" smooth="yes"/>
      <point x="1712.0" y="772.0" name="inserted"/>
      <point x="1637.5" y="742.5"/>
      <point x="1606" y="721" type="qcurve" smooth="yes"/>
      <point x="1545" y="679"/>
      <point x="1491" y="553"/>
      <point x="1491" y="468" type="qcurve" smooth="yes"/>
      <point x="1491.0" y="388.5" name="inserted"/>
      <point x="1551.0" y="262.5"/>
      <point x="1611" y="216" type="qcurve" smooth="yes"/>
      <point x="1671.5" y="170.0" name="inserted"/>
      <point x="1844.5" y="124.0"/>
      <point x="1957" y="124" type="qcurve" smooth="yes"/>
      <point x="2060.0" y="124.0" name="inserted"/>
      <point x="2251.0" y="168.0"/>
      <point x="2339" y="212" type="qcurve"/>
      <point x="2382" y="75" type="line"/>
      <point x="2337.0" y="51.5" name="inserted"/>
      <point x="2239.5" y="15.5"/>
      <point x="2187" y="3" type="qcurve"/>
      <point x="2121.0" y="-51.0" name="inserted"/>
      <point x="2055.0" y="-174.5"/>
      <point x="2055" y="-244" type="qcurve" smooth="yes"/>
      <point x="2055.0" y="-329.5" name="inserted"/>
      <point x="2152.5" y="-415.0"/>
      <point x="2250" y="-415" type="qcurve" smooth="yes"/>
      <point x="2291.0" y="-415.0" name="inserted"/>
      <point x="2363.5" y="-399.5"/>
      <point x="2395" y="-384" type="qcurve"/>
      <point x="2428" y="-515" type="line"/>
      <point x="2384.5" y="-535.0" name="inserted"/>
      <point x="2279.5" y="-555.0"/>
      <point x="2218" y="-555" type="qcurve" smooth="yes"/>
      <point x="2068" y="-555"/>
      <point x="1903" y="-395"/>
      <point x="1903" y="-248" type="qcurve" smooth="yes"/>
      <point x="1903.0" y="-186.5" name="inserted"/>
      <point x="1946.0" y="-73.0"/>
      <point x="1989" y="-21" type="qcurve"/>
      <point x="1964" y="-21" type="line"/>
      <point x="1959" y="-22"/>
      <point x="1947" y="-22"/>
    </contour>
    <contour>
      <point x="1707" y="1122" type="qcurve"/>
      <point x="1690" y="1122" type="line" smooth="yes"/>
      <point x="1491" y="1122"/>
      <point x="1220" y="915"/>
      <point x="1160" y="714" type="qcurve"/>
      <point x="1181.5" y="723.0" name="inserted"/>
      <point x="1228.5" y="732.0"/>
      <point x="1254" y="732" type="qcurve" smooth="yes"/>
      <point x="1296.5" y="732.0" name="inserted"/>
      <point x="1368.0" y="704.5"/>
      <point x="1397" y="677" type="qcurve"/>
      <point x="1413.0" y="716.0" name="inserted"/>
      <point x="1467.0" y="784.5"/>
      <point x="1505" y="814" type="qcurve" smooth="yes"/>
      <point x="1542.0" y="843.0" name="inserted"/>
      <point x="1637.5" y="887.0"/>
      <point x="1696" y="902" type="qcurve" smooth="yes"/>
      <point x="1753.5" y="917.0" name="inserted"/>
      <point x="1913.5" y="932.0"/>
      <point x="2016" y="932" type="qcurve" smooth="yes"/>
      <point x="2190" y="932" type="line"/>
      <point x="2185" y="1020"/>
      <point x="2084" y="1119"/>
      <point x="1994" y="1119" type="qcurve" smooth="yes"/>
      <point x="1910" y="1119"/>
      <point x="1831" y="1056"/>
      <point x="1831" y="1007" type="qcurve" smooth="yes"/>
      <point x="1831.0" y="998.0" name="inserted"/>
      <point x="1832.5" y="983.0"/>
      <point x="1834" y="977" type="qcurve"/>
      <point x="1687" y="959" type="line"/>
      <point x="1685" y="973"/>
      <point x="1683" y="998"/>
      <point x="1683" y="1009" type="qcurve" smooth="yes"/>
      <point x="1683.0" y="1045.0" name="inserted"/>
      <point x="1695.0" y="1101.5"/>
    </contour>
  </outline>
</glyph>
<glyph name="uni0DBD" format="1">
  <advance width="2766"/>
  <unicode hex="0DBD"/>
  <outline>
    <contour>
      <point x="1225" y="404" type="qcurve" smooth="yes"/>
      <point x="1225" y="452"/>
      <point x="1177" y="525"/>
      <point x="1139.5" y="549.0" type="qcurve" smooth="yes" name="inserted"/>
      <point x="1102" y="573"/>
      <point x="1010" y="598"/>
      <point x="967" y="599" type="qcurve"/>
      <point x="958" y="554"/>
      <point x="965" y="442"/>
      <point x="983.0" y="392.0" type="qcurve" smooth="yes" name="inserted"/>
      <point x="1001" y="342"/>
      <point x="1065" y="274"/>
      <point x="1112" y="274" type="qcurve" smooth="yes"/>
      <point x="1137" y="274"/>
      <point x="1179" y="295"/>
      <point x="1194.0" y="313.0" type="qcurve" smooth="yes" name="inserted"/>
      <point x="1209" y="331"/>
      <point x="1225" y="378"/>
    </contour>
    <contour>
      <point x="2645" y="614" type="qcurve" smooth="yes"/>
      <point x="2645" y="497"/>
      <point x="2571" y="298"/>
      <point x="2507.0" y="225.5" type="qcurve" smooth="yes" name="inserted"/>
      <point x="2443" y="153"/>
      <point x="2272" y="72"/>
      <point x="2175" y="72" type="qcurve" smooth="yes"/>
      <point x="2087" y="72"/>
      <point x="1956" y="124"/>
      <point x="1908.5" y="167.0" type="qcurve" smooth="yes" name="inserted"/>
      <point x="1861" y="210"/>
      <point x="1799" y="321"/>
      <point x="1779.0" y="379.0" type="qcurve" smooth="yes" name="inserted"/>
      <point x="1759" y="437"/>
      <point x="1739" y="550"/>
      <point x="1734" y="595" type="qcurve" smooth="yes"/>
      <point x="1721" y="696"/>
      <point x="1676" y="860"/>
      <point x="1635.5" y="917.5" type="qcurve" smooth="yes" name="inserted"/>
      <point x="1595" y="975"/>
      <point x="1472" y="1038"/>
      <point x="1381" y="1038" type="qcurve" smooth="yes"/>
      <point x="1326" y="1038"/>
      <point x="1220" y="1006"/>
      <point x="1173.0" y="975.5" type="qcurve" smooth="yes" name="inserted"/>
      <point x="1126" y="945"/>
      <point x="1047" y="857"/>
      <point x="1019" y="802" type="qcurve"/>
      <point x="1109" y="797"/>
      <point x="1260" y="728"/>
      <point x="1315.0" y="673.0" type="qcurve" smooth="yes" name="inserted"/>
      <point x="1370" y="618"/>
      <point x="1431" y="478"/>
      <point x="1431" y="404" type="qcurve" smooth="yes"/>
      <point x="1431" y="336"/>
      <point x="1382" y="214"/>
      <point x="1339.0" y="168.5" type="qcurve" smooth="yes" name="inserted"/>
      <point x="1296" y="123"/>
      <point x="1179" y="69"/>
      <point x="1112" y="69" type="qcurve" smooth="yes"/>
      <point x="1029" y="69"/>
      <point x="898" y="146"/>
      <point x="852.5" y="214.0" type="qcurve" smooth="yes" name="inserted"/>
      <point x="807" y="282"/>
      <point x="759" y="467"/>
      <point x="759" y="575" type="qcurve"/>
      <point x="661" y="546"/>
      <point x="507" y="433"/>
      <point x="453.5" y="358.0" type="qcurve" smooth="yes" name="inserted"/>
      <point x="400" y="283"/>
      <point x="343" y="106"/>
      <point x="343" y="14" type="qcurve" smooth="yes"/>
      <point x="343" y="-106"/>
      <point x="435" y="-314"/>
      <point x="516.5" y="-391.5" type="qcurve" smooth="yes" name="inserted"/>
      <point x="598" y="-469"/>
      <point x="820" y="-558"/>
      <point x="949" y="-558" type="qcurve" smooth="yes"/>
      <point x="953" y="-558" type="line" smooth="yes"/>
      <point x="1030" y="-557"/>
      <point x="1184" y="-519"/>
      <point x="1255.0" y="-485.0" type="qcurve" smooth="yes" name="inserted"/>
      <point x="1326" y="-451"/>
      <point x="1451" y="-354"/>
      <point x="1501" y="-293" type="qcurve"/>
      <point x="1658" y="-423" type="line"/>
      <point x="1595" y="-502"/>
      <point x="1435" y="-627"/>
      <point x="1344.0" y="-670.5" type="qcurve" smooth="yes" name="inserted"/>
      <point x="1253" y="-714"/>
      <point x="1055" y="-761"/>
      <point x="953" y="-761" type="qcurve" smooth="yes"/>
      <point x="949" y="-761" type="line" smooth="yes"/>
      <point x="834" y="-761"/>
      <point x="623" y="-705"/>
      <point x="532.0" y="-653.5" type="qcurve" smooth="yes" name="inserted"/>
      <point x="441" y="-602"/>
      <point x="293" y="-459"/>
      <point x="241.0" y="-372.0" type="qcurve" smooth="yes" name="inserted"/>
      <point x="189" y="-285"/>
      <point x="132" y="-85"/>
      <point x="132" y="23" type="qcurve" smooth="yes"/>
      <point x="132" y="116"/>
      <point x="176" y="293"/>
      <point x="217.5" y="373.0" type="qcurve" smooth="yes" name="inserted"/>
      <point x="259" y="453"/>
      <point x="377" y="592"/>
      <point x="450.5" y="646.5" type="qcurve" smooth="yes" name="inserted"/>
      <point x="524" y="701"/>
      <point x="697" y="776"/>
      <point x="794" y="793" type="qcurve"/>
      <point x="825" y="894"/>
      <point x="943" y="1059"/>
      <point x="1020.0" y="1118.0" type="qcurve" smooth="yes" name="inserted"/>
      <point x="1097" y="1177"/>
      <point x="1282" y="1241"/>
      <point x="1381" y="1241" type="qcurve" smooth="yes"/>
      <point x="1491" y="1241"/>
      <point x="1655" y="1184"/>
      <point x="1715.0" y="1136.0" type="qcurve" smooth="yes" name="inserted"/>
      <point x="1775" y="1088"/>
      <point x="1855" y="961"/>
      <point x="1880.5" y="891.5" type="qcurve" smooth="yes" name="inserted"/>
      <point x="1906" y="822"/>
      <point x="1931" y="678"/>
      <point x="1937" y="614" type="qcurve" smooth="yes"/>
      <point x="1944" y="552"/>
      <point x="1972" y="434"/>
      <point x="1998.0" y="387.0" type="qcurve" smooth="yes" name="inserted"/>
      <point x="2024" y="340"/>
      <point x="2107" y="281"/>
      <point x="2170" y="277" type="qcurve"/>
      <point x="2230" y="277"/>
      <point x="2329" y="329"/>
      <point x="2364.5" y="374.5" type="qcurve" smooth="yes" name="inserted"/>
      <point x="2400" y="420"/>
      <point x="2440" y="543"/>
      <point x="2440" y="614" type="qcurve" smooth="yes"/>
      <point x="2440" y="683"/>
      <point x="2407" y="825"/>
      <point x="2376.5" y="893.0" type="qcurve" smooth="yes" name="inserted"/>
      <point x="2346" y="961"/>
      <point x="2262" y="1085"/>
      <point x="2211" y="1135" type="qcurve"/>
      <point x="2355" y="1282" type="line"/>
      <point x="2405" y="1232"/>
      <point x="2508" y="1091"/>
      <point x="2550.0" y="1004.5" type="qcurve" smooth="yes" name="inserted"/>
      <point x="2592" y="918"/>
      <point x="2645" y="720"/>
    </contour>
  </outline>
</glyph>
<glyph name="uni0DC2" format="1">
  <advance width="2521"/>
  <unicode hex="0DC2"/>
  <outline>
    <contour>
      <point x="2146" y="186" type="line"/>
      <point x="2146" y="825" type="line"/>
      <point x="2123" y="767"/>
      <point x="2068" y="647"/>
      <point x="2030.0" y="592.0" type="qcurve" smooth="yes" name="inserted"/>
      <point x="1992" y="537"/>
      <point x="1889" y="446"/>
      <point x="1819" y="417" type="qcurve"/>
      <point x="1819" y="186" type="line"/>
    </contour>
    <contour>
      <point x="418" y="793" type="qcurve" smooth="yes"/>
      <point x="444" y="793"/>
      <point x="492" y="814"/>
      <point x="510.0" y="832.0" type="qcurve" smooth="yes" name="inserted"/>
      <point x="528" y="850"/>
      <point x="549" y="899"/>
      <point x="549" y="926" type="qcurve" smooth="yes"/>
      <point x="549" y="954"/>
      <point x="526" y="1002"/>
      <point x="507.0" y="1019.5" type="qcurve" smooth="yes" name="inserted"/>
      <point x="488" y="1037"/>
      <point x="440" y="1056"/>
      <point x="415" y="1056" type="qcurve" smooth="yes"/>
      <point x="388" y="1056"/>
      <point x="340" y="1035"/>
      <point x="322.5" y="1017.0" type="qcurve" smooth="yes" name="inserted"/>
      <point x="305" y="999"/>
      <point x="284" y="950"/>
      <point x="284" y="923" type="qcurve" smooth="yes"/>
      <point x="284" y="889"/>
      <point x="308" y="840"/>
      <point x="327.0" y="824.0" type="qcurve" smooth="yes" name="inserted"/>
      <point x="346" y="808"/>
      <point x="394" y="793"/>
    </contour>
    <contour>
      <point x="2419" y="1384" type="qcurve" smooth="yes"/>
      <point x="2463" y="1384"/>
      <point x="2542" y="1358"/>
      <point x="2574.5" y="1334.5" type="qcurve" smooth="yes" name="inserted"/>
      <point x="2607" y="1311"/>
      <point x="2655" y="1243"/>
      <point x="2668" y="1201" type="qcurve"/>
      <point x="2488" y="1152" type="line"/>
      <point x="2483" y="1171"/>
      <point x="2450" y="1197"/>
      <point x="2430" y="1197" type="qcurve" smooth="yes"/>
      <point x="2396" y="1197"/>
      <point x="2357" y="1158"/>
      <point x="2347.0" y="1129.0" type="qcurve" smooth="yes" name="inserted"/>
      <point x="2337" y="1100"/>
      <point x="2331" y="1032"/>
      <point x="2331" y="1003" type="qcurve" smooth="yes"/>
      <point x="2331" y="0" type="line"/>
      <point x="1819" y="0" type="line"/>
      <point x="1819" y="-363" type="line"/>
      <point x="1634" y="-363" type="line"/>
      <point x="1634" y="0" type="line"/>
      <point x="1152" y="0" type="line" smooth="yes"/>
      <point x="1072" y="0"/>
      <point x="943" y="44"/>
      <point x="897.0" y="87.0" type="qcurve" smooth="yes" name="inserted"/>
      <point x="851" y="130"/>
      <point x="801" y="257"/>
      <point x="801" y="340" type="qcurve" smooth="yes"/>
      <point x="801" y="397"/>
      <point x="825" y="501"/>
      <point x="836" y="552" type="qcurve"/>
      <point x="855" y="618"/>
      <point x="872" y="728"/>
      <point x="872" y="782" type="qcurve" smooth="yes"/>
      <point x="872" y="854"/>
      <point x="838" y="978"/>
      <point x="806.5" y="1026.5" type="qcurve" smooth="yes" name="inserted"/>
      <point x="775" y="1075"/>
      <point x="687" y="1144"/>
      <point x="632" y="1161" type="qcurve"/>
      <point x="683" y="1113"/>
      <point x="733" y="986"/>
      <point x="733" y="917" type="qcurve" smooth="yes"/>
      <point x="733" y="849"/>
      <point x="680" y="735"/>
      <point x="636.0" y="693.5" type="qcurve" smooth="yes" name="inserted"/>
      <point x="592" y="652"/>
      <point x="478" y="606"/>
      <point x="417" y="606" type="qcurve" smooth="yes"/>
      <point x="347" y="606"/>
      <point x="228" y="661"/>
      <point x="184.0" y="707.5" type="qcurve" smooth="yes" name="inserted"/>
      <point x="140" y="754"/>
      <point x="90" y="875"/>
      <point x="90" y="942" type="qcurve" smooth="yes"/>
      <point x="90" y="1006"/>
      <point x="130" y="1120"/>
      <point x="165.5" y="1168.0" type="qcurve" smooth="yes" name="inserted"/>
      <point x="201" y="1216"/>
      <point x="298" y="1291"/>
      <point x="355" y="1316" type="qcurve" smooth="yes"/>
      <point x="402" y="1336"/>
      <point x="500" y="1358"/>
      <point x="551" y="1358" type="qcurve" smooth="yes"/>
      <point x="665" y="1358"/>
      <point x="853" y="1265"/>
      <point x="919.5" y="1186.0" type="qcurve" smooth="yes" name="inserted"/>
      <point x="986" y="1107"/>
      <point x="1059" y="898"/>
      <point x="1059" y="782" type="qcurve" smooth="yes"/>
      <point x="1059" y="732"/>
      <point x="1047" y="631"/>
      <point x="1036" y="577" type="qcurve" smooth="yes"/>
      <point x="1020" y="508"/>
      <point x="987" y="397"/>
      <point x="987" y="341" type="qcurve" smooth="yes"/>
      <point x="987" y="309"/>
      <point x="999" y="253"/>
      <point x="1017.0" y="232.0" type="qcurve" smooth="yes" name="inserted"/>
      <point x="1035" y="211"/>
      <point x="1099" y="186"/>
      <point x="1152" y="186" type="qcurve" smooth="yes"/>
      <point x="1634" y="186" type="line"/>
      <point x="1634" y="382" type="line"/>
      <point x="1558" y="382"/>
      <point x="1424" y="443"/>
      <point x="1373.5" y="493.5" type="qcurve" smooth="yes" name="inserted"/>
      <point x="1323" y="544"/>
      <point x="1265" y="677"/>
      <point x="1265" y="749" type="qcurve" smooth="yes"/>
      <point x="1265" y="818"/>
      <point x="1314" y="931"/>
      <point x="1354.0" y="971.5" type="qcurve" smooth="yes" name="inserted"/>
      <point x="1394" y="1012"/>
      <point x="1497" y="1057"/>
      <point x="1552" y="1057" type="qcurve" smooth="yes"/>
      <point x="1619" y="1057"/>
      <point x="1719" y="1018"/>
      <point x="1752.5" y="984.0" type="qcurve" smooth="yes" name="inserted"/>
      <point x="1786" y="950"/>
      <point x="1819" y="859"/>
      <point x="1819" y="808" type="qcurve" smooth="yes"/>
      <point x="1819" y="635" type="line"/>
      <point x="1876" y="680"/>
      <point x="1979" y="860"/>
      <point x="2032" y="986" type="qcurve" smooth="yes"/>
      <point x="2084" y="1107"/>
      <point x="2172" y="1262"/>
      <point x="2222" y="1306" type="qcurve" smooth="yes"/>
      <point x="2255" y="1335"/>
      <point x="2311" y="1367"/>
      <point x="2335.0" y="1374.5" type="qcurve" smooth="yes" name="inserted"/>
      <point x="2359" y="1382"/>
      <point x="2400" y="1384"/>
    </contour>
    <contour>
      <point x="1635" y="808" type="line" smooth="yes"/>
      <point x="1635" y="814"/>
      <point x="1631" y="840"/>
      <point x="1622.5" y="852.5" type="qcurve" smooth="yes" name="inserted"/>
      <point x="1614" y="865"/>
      <point x="1580" y="884"/>
      <point x="1551" y="884" type="qcurve" smooth="yes"/>
      <point x="1532" y="884"/>
      <point x="1492" y="866"/>
      <point x="1475.0" y="848.0" type="qcurve" smooth="yes" name="inserted"/>
      <point x="1458" y="830"/>
      <point x="1436" y="776"/>
      <point x="1436" y="740" type="qcurve" smooth="yes"/>
      <point x="1436" y="698"/>
      <point x="1467" y="630"/>
      <point x="1493.0" y="607.0" type="qcurve" smooth="yes" name="inserted"/>
      <point x="1519" y="584"/>
      <point x="1590" y="559"/>
      <point x="1631" y="559" type="qcurve"/>
    </contour>
  </outline>
</glyph>
<glyph name="uni0DD8" format="1">
  <advance width="919"/>
  <unicode hex="0DD8"/>
  <outline>
    <contour>
      <point x="663" y="691" type="qcurve"/>
      <point x="659.5" y="773.5" name="inserted"/>
      <point x="618.5" y="891.0"/>
      <point x="581" y="926" type="qcurve" smooth="yes"/>
      <point x="544.5" y="961.0" name="inserted"/>
      <point x="439.5" y="996.0"/>
      <point x="371" y="996" type="qcurve" smooth="yes"/>
      <point x="306.0" y="996.0" name="inserted"/>
      <point x="179.5" y="974.0"/>
      <point x="118" y="952" type="qcurve"/>
      <point x="75" y="1086" type="line"/>
      <point x="152.0" y="1111.5" name="inserted"/>
      <point x="299.0" y="1137.0"/>
      <point x="369" y="1137" type="qcurve" smooth="yes"/>
      <point x="483" y="1137"/>
      <point x="648" y="1078"/>
      <point x="708" y="1012" type="qcurve" smooth="yes"/>
      <point x="738.0" y="979.0" name="inserted"/>
      <point x="779.5" y="900.0"/>
      <point x="791" y="854" type="qcurve" smooth="yes"/>
      <point x="803.5" y="807.5" name="inserted"/>
      <point x="816.0" y="677.5"/>
      <point x="816" y="594" type="qcurve" smooth="yes"/>
      <point x="816" y="0" type="line"/>
      <point x="685" y="0" type="line"/>
      <point x="602" y="49" type="line"/>
      <point x="575" y="29"/>
      <point x="521" y="2"/>
      <point x="492.5" y="-6.0" type="qcurve" smooth="yes" name="inserted"/>
      <point x="464" y="-14"/>
      <point x="400" y="-22"/>
      <point x="363" y="-22" type="qcurve" smooth="yes"/>
      <point x="293.5" y="-22.0" name="inserted"/>
      <point x="182.5" y="22.5"/>
      <point x="141" y="67" type="qcurve" smooth="yes"/>
      <point x="99.5" y="112.5" name="inserted"/>
      <point x="58.0" y="235.5"/>
      <point x="58" y="313" type="qcurve" smooth="yes"/>
      <point x="58" y="409"/>
      <point x="124" y="547"/>
      <point x="193" y="598" type="qcurve" smooth="yes"/>
      <point x="228.0" y="623.0" name="inserted"/>
      <point x="314.5" y="658.5"/>
      <point x="366" y="669" type="qcurve" smooth="yes"/>
      <point x="417.5" y="680.0" name="inserted"/>
      <point x="566.0" y="691.0"/>
    </contour>
    <contour>
      <point x="634" y="175" type="line"/>
      <point x="665" y="156" type="line"/>
      <point x="665" y="555" type="line"/>
      <point x="596" y="555" type="line" smooth="yes"/>
      <point x="513.0" y="555.0" name="inserted"/>
      <point x="390.5" y="540.0"/>
      <point x="351" y="525" type="qcurve" smooth="yes"/>
      <point x="272" y="496"/>
      <point x="208" y="392"/>
      <point x="208" y="314" type="qcurve" smooth="yes"/>
      <point x="208.0" y="216.5" name="inserted"/>
      <point x="297.0" y="119.0"/>
      <point x="386" y="119" type="qcurve" smooth="yes"/>
      <point x="413.5" y="119.0" name="inserted"/>
      <point x="458.5" y="125.0"/>
      <point x="476" y="131" type="qcurve" smooth="yes"/>
      <point x="492.5" y="137.0" name="inserted"/>
      <point x="530.0" y="159.0"/>
      <point x="551" y="175" type="qcurve"/>
    </contour>
  </outline>
</glyph>
<glyph name="uni200C" format="1">
  <advance width="0"/>
  <unicode hex="200C"/>
  <outline>
    <contour>
      <point x="-59" y="-422" type="line"/>
      <point x="-59" y="1651" type="line"/>
      <point x="59" y="1651" type="line"/>
      <point x="59" y="-422" type="line"/>
    </contour>
  </outline>
</glyph>
<glyph name="endash" format="1">
  <advance width="1024"/>
  <unicode hex="2013"/>
  <outline>
    <contour>
      <point x="82" y="571" type="line"/>
      <point x="82" y="723" type="line"/>
      <point x="942" y="723" type="line"/>
      <point x="942" y="571" type="line"/>
    </contour>
  </outline>
</glyph>
<glyph name="quoteleft" format="1">
  <advance width="489"/>
  <unicode hex="2018"/>
  <outline>
    <contour>
      <point x="102" y="1136" type="line"/>
      <point x="90" y="1158" type="line"/>
      <point x="118" y="1265"/>
      <point x="205" y="1503"/>
      <point x="266" y="1637" type="qcurve"/>
      <point x="399" y="1637" type="line"/>
      <point x="363.0" y="1503.5" name="inserted"/>
      <point x="307.5" y="1253.0"/>
      <point x="288" y="1136" type="qcurve"/>
    </contour>
  </outline>
</glyph>
<glyph name="_103" format="1">
  <advance width="644"/>
  <outline>
    <contour>
      <point x="350" y="-5" type="qcurve"/>
      <point x="337" y="-7"/>
      <point x="264" y="-14"/>
      <point x="202" y="-19" type="qcurve" smooth="yes"/>
      <point x="132" y="-24" type="line"/>
      <point x="83" y="95" type="line"/>
      <point x="153" y="144"/>
      <point x="305" y="240"/>
      <point x="387" y="289" type="qcurve"/>
      <point x="372" y="288"/>
      <point x="342" y="287"/>
      <point x="327" y="287" type="qcurve" smooth="yes"/>
      <point x="32" y="287" type="line"/>
      <point x="32" y="425" type="line"/>
      <point x="548" y="425" type="line"/>
      <point x="594" y="297" type="line"/>
      <point x="539" y="255"/>
      <point x="370" y="148"/>
      <point x="255" y="82" type="qcurve"/>
      <point x="293.0" y="85.5" name="inserted"/>
      <point x="392.0" y="91.5"/>
      <point x="453" y="94" type="qcurve" smooth="yes"/>
      <point x="548" y="98" type="line"/>
      <point x="593" y="-27" type="line"/>
      <point x="408" y="-71"/>
      <point x="220" y="-188"/>
      <point x="220" y="-280" type="qcurve" smooth="yes"/>
      <point x="220" y="-346"/>
      <point x="313" y="-415"/>
      <point x="403" y="-415" type="qcurve" smooth="yes"/>
      <point x="439.0" y="-415.0" name="inserted"/>
      <point x="498.0" y="-409.5"/>
      <point x="521" y="-404" type="qcurve" smooth="yes"/>
      <point x="544" y="-399"/>
      <point x="588" y="-385"/>
      <point x="610" y="-375" type="qcurve"/>
      <point x="657" y="-504" type="line"/>
      <point x="596.0" y="-529.5" name="inserted"/>
      <point x="472.5" y="-555.0"/>
      <point x="410" y="-555" type="qcurve" smooth="yes"/>
      <point x="332.0" y="-555.0" name="inserted"/>
      <point x="207.0" y="-521.0"/>
      <point x="160" y="-487" type="qcurve" smooth="yes"/>
      <point x="113.5" y="-453.5" name="inserted"/>
      <point x="67.0" y="-358.0"/>
      <point x="67" y="-296" type="qcurve" smooth="yes"/>
      <point x="67" y="-197"/>
      <point x="208" y="-50"/>
    </contour>
  </outline>
</glyph>
<glyph name="_118" format="1">
  <advance width="0"/>
  <outline>
    <contour>
      <point x="-1469" y="-63" type="line"/>
      <point x="-1469" y="-69" type="line" smooth="yes"/>
      <point x="-1469" y="-150"/>
      <point x="-1417" y="-251"/>
      <point x="-1352" y="-288" type="qcurve" smooth="yes"/>
      <point x="-1288" y="-326"/>
      <point x="-1047" y="-362"/>
      <point x="-884" y="-362" type="qcurve" smooth="yes"/>
      <point x="-714" y="-362"/>
      <point x="-489" y="-320"/>
      <point x="-425" y="-280" type="qcurve" smooth="yes"/>
      <point x="-361" y="-241"/>
      <point x="-302" y="-123"/>
      <point x="-302" y="-28" type="qcurve" smooth="yes"/>
      <point x="-302" y="-18" type="line"/>
      <point x="-153" y="-9" type="line"/>
      <point x="-152" y="-29" type="line" smooth="yes"/>
      <point x="-152.0" y="-74.5" name="inserted"/>
      <point x="-158.5" y="-149.0"/>
      <point x="-165" y="-178" type="qcurve" smooth="yes"/>
      <point x="-172.0" y="-208.0" name="inserted"/>
      <point x="-199.0" y="-268.0"/>
      <point x="-219" y="-298" type="qcurve" smooth="yes"/>
      <point x="-249" y="-344"/>
      <point x="-361" y="-422"/>
      <point x="-443.5" y="-450.0" type="qcurve" smooth="yes" name="inserted"/>
      <point x="-526" y="-478"/>
      <point x="-746" y="-508"/>
      <point x="-884" y="-507" type="qcurve" smooth="yes"/>
      <point x="-1056" y="-506"/>
      <point x="-1329" y="-464"/>
      <point x="-1423.5" y="-417.0" type="qcurve" smooth="yes" name="inserted"/>
      <point x="-1518" y="-370"/>
      <point x="-1619" y="-214"/>
      <point x="-1619" y="-97" type="qcurve" smooth="yes"/>
      <point x="-1619" y="-75" type="line" smooth="yes"/>
      <point x="-1619" y="-70"/>
      <point x="-1619" y="-62"/>
      <point x="-1618" y="-57" type="qcurve"/>
    </contour>
  </outline>
</glyph>
<glyph name="_135" format="1">
  <advance width="0"/>
  <outline>
    <contour>
      <point x="-1551" y="-49" type="qcurve"/>
      <point x="-1402" y="-55" type="line"/>
      <point x="-1402" y="-61" type="line" smooth="yes"/>
      <point x="-1402" y="-155"/>
      <point x="-1336" y="-263"/>
      <point x="-1269" y="-295" type="qcurve" smooth="yes"/>
      <point x="-1202" y="-328"/>
      <point x="-982" y="-362"/>
      <point x="-820" y="-362" type="qcurve" smooth="yes"/>
      <point x="-653" y="-362"/>
      <point x="-433" y="-319"/>
      <point x="-370" y="-277" type="qcurve" smooth="yes"/>
      <point x="-309" y="-236"/>
      <point x="-255" y="-121"/>
      <point x="-255" y="-34" type="qcurve" smooth="yes"/>
      <point x="-255" y="-25" type="line"/>
      <point x="-106" y="-16" type="line"/>
      <point x="-105" y="-36" type="line" smooth="yes"/>
      <point x="-105" y="-68"/>
      <point x="-109" y="-126"/>
      <point x="-113" y="-152" type="qcurve" smooth="yes"/>
      <point x="-121" y="-206"/>
      <point x="-180" y="-314"/>
      <point x="-231" y="-359" type="qcurve" smooth="yes"/>
      <point x="-268" y="-393"/>
      <point x="-383" y="-448"/>
      <point x="-458.5" y="-467.5" type="qcurve" smooth="yes" name="inserted"/>
      <point x="-534" y="-487"/>
      <point x="-718" y="-508"/>
      <point x="-824" y="-507" type="qcurve" smooth="yes"/>
      <point x="-1006" y="-507"/>
      <point x="-1278" y="-459"/>
      <point x="-1369.5" y="-408.5" type="qcurve" smooth="yes" name="inserted"/>
      <point x="-1461" y="-358"/>
      <point x="-1552" y="-200"/>
      <point x="-1552" y="-90" type="qcurve" smooth="yes"/>
      <point x="-1552" y="-68" type="line" smooth="yes"/>
      <point x="-1552" y="-63"/>
      <point x="-1552" y="-54"/>
    </contour>
  </outline>
</glyph>
<glyph name="_144" format="1">
  <advance width="0"/>
  <outline>
    <contour>
      <point x="-1404" y="-57" type="line"/>
      <point x="-1404" y="-66" type="line" smooth="yes"/>
      <point x="-1404" y="-107"/>
      <point x="-1392" y="-170"/>
      <point x="-1379.0" y="-196.0" type="qcurve" smooth="yes" name="inserted"/>
      <point x="-1366" y="-222"/>
      <point x="-1323" y="-263"/>
      <point x="-1293" y="-281" type="qcurve" smooth="yes"/>
      <point x="-1233" y="-317"/>
      <point x="-1008" y="-352"/>
      <point x="-852" y="-352" type="qcurve" smooth="yes"/>
      <point x="-758.5" y="-352.0" name="inserted"/>
      <point x="-605.0" y="-332.0"/>
      <point x="-545" y="-312" type="qcurve" smooth="yes"/>
      <point x="-484.0" y="-292.5" name="inserted"/>
      <point x="-392.5" y="-227.5"/>
      <point x="-362" y="-182" type="qcurve" smooth="yes"/>
      <point x="-331.5" y="-136.5" name="inserted"/>
      <point x="-301.0" y="2.0"/>
      <point x="-301" y="95" type="qcurve" smooth="yes"/>
      <point x="-301" y="122" type="line"/>
      <point x="-154" y="133" type="line"/>
      <point x="-152.5" y="115.0" name="inserted"/>
      <point x="-151.0" y="83.0"/>
      <point x="-151" y="69" type="qcurve" smooth="yes"/>
      <point x="-151.0" y="-38.0" name="inserted"/>
      <point x="-191.5" y="-205.5"/>
      <point x="-232" y="-266" type="qcurve" smooth="yes"/>
      <point x="-313" y="-387"/>
      <point x="-622" y="-497"/>
      <point x="-852" y="-497" type="qcurve" smooth="yes"/>
      <point x="-1057" y="-497"/>
      <point x="-1333" y="-438"/>
      <point x="-1409" y="-384" type="qcurve" smooth="yes"/>
      <point x="-1486" y="-331"/>
      <point x="-1554" y="-190"/>
      <point x="-1554" y="-90" type="qcurve" smooth="yes"/>
      <point x="-1554" y="-68" type="line" smooth="yes"/>
      <point x="-1554" y="-63"/>
      <point x="-1554" y="-55"/>
      <point x="-1553" y="-50" type="qcurve"/>
    </contour>
  </outline>
</glyph>
<glyph name="uni0D9E_uni0DD4" format="1">
  <advance width="1824"/>
  <outline>
    <contour>
      <point x="1241" y="-22" type="qcurve" smooth="yes"/>
      <point x="1138" y="-22"/>
      <point x="978" y="64"/>
      <point x="909" y="158" type="qcurve"/>
      <point x="876" y="108"/>
      <point x="802" y="40"/>
      <point x="759.5" y="18.5" type="qcurve" smooth="yes" name="inserted"/>
      <point x="717" y="-3"/>
      <point x="620" y="-22"/>
      <point x="563" y="-22" type="qcurve" smooth="yes"/>
      <point x="468.5" y="-22.0" name="inserted"/>
      <point x="318.5" y="30.5"/>
      <point x="263" y="83" type="qcurve" smooth="yes"/>
      <point x="208.0" y="136.5" name="inserted"/>
      <point x="153.0" y="282.0"/>
      <point x="153" y="374" type="qcurve" smooth="yes"/>
      <point x="153.0" y="457.0" name="inserted"/>
      <point x="203.5" y="590.5"/>
      <point x="254" y="641" type="qcurve" smooth="yes"/>
      <point x="304.5" y="691.5" name="inserted"/>
      <point x="474.5" y="777.5"/>
      <point x="594" y="813" type="qcurve" smooth="yes"/>
      <point x="665" y="834" type="line" smooth="yes"/>
      <point x="707" y="846"/>
      <point x="765" y="865"/>
      <point x="784" y="873" type="qcurve" smooth="yes"/>
      <point x="822" y="889"/>
      <point x="860" y="938"/>
      <point x="860" y="980" type="qcurve" smooth="yes"/>
      <point x="860" y="1052"/>
      <point x="687" y="1119"/>
      <point x="509" y="1119" type="qcurve" smooth="yes"/>
      <point x="503" y="1119" type="line"/>
      <point x="524" y="1086"/>
      <point x="546" y="1006"/>
      <point x="546" y="971" type="qcurve" smooth="yes"/>
      <point x="546.0" y="915.0" name="inserted"/>
      <point x="510.0" y="830.0"/>
      <point x="474" y="801" type="qcurve" smooth="yes"/>
      <point x="438.5" y="771.5" name="inserted"/>
      <point x="349.0" y="742.0"/>
      <point x="295" y="742" type="qcurve" smooth="yes"/>
      <point x="237.5" y="742.0" name="inserted"/>
      <point x="148.0" y="772.5"/>
      <point x="116" y="803" type="qcurve" smooth="yes"/>
      <point x="84.0" y="833.5" name="inserted"/>
      <point x="52.0" y="914.5"/>
      <point x="52" y="965" type="qcurve" smooth="yes"/>
      <point x="52" y="1032"/>
      <point x="113" y="1140"/>
      <point x="173.0" y="1177.0" type="qcurve" smooth="yes" name="inserted"/>
      <point x="233" y="1214"/>
      <point x="409" y="1254"/>
      <point x="524" y="1254" type="qcurve" smooth="yes"/>
      <point x="766.5" y="1254.0" name="inserted"/>
      <point x="1009.0" y="1116.0"/>
      <point x="1009" y="978" type="qcurve"/>
      <point x="1008" y="916"/>
      <point x="965" y="831"/>
      <point x="921.0" y="799.5" type="qcurve" smooth="yes" name="inserted"/>
      <point x="877" y="768"/>
      <point x="744" y="719"/>
      <point x="653" y="694" type="qcurve" smooth="yes"/>
      <point x="558.0" y="670.0" name="inserted"/>
      <point x="423.0" y="608.0"/>
      <point x="383" y="570" type="qcurve" smooth="yes"/>
      <point x="343.0" y="532.5" name="inserted"/>
      <point x="303.0" y="434.5"/>
      <point x="303" y="374" type="qcurve" smooth="yes"/>
      <point x="303" y="251"/>
      <point x="438" y="124"/>
      <point x="568" y="124" type="qcurve" smooth="yes"/>
      <point x="707" y="124"/>
      <point x="842" y="265"/>
      <point x="842" y="425" type="qcurve" smooth="yes"/>
      <point x="842" y="439" type="line"/>
      <point x="980" y="439" type="line"/>
      <point x="980" y="425" type="line" smooth="yes"/>
      <point x="980" y="272"/>
      <point x="1107" y="124"/>
      <point x="1239" y="124" type="qcurve" smooth="yes"/>
      <point x="1412.5" y="124.0" name="inserted"/>
      <point x="1586.0" y="415.5"/>
      <point x="1586" y="707" type="qcurve" smooth="yes"/>
      <point x="1586" y="1135"/>
      <point x="1220" y="1569"/>
      <point x="861" y="1569" type="qcurve" smooth="yes"/>
      <point x="689" y="1569"/>
      <point x="386" y="1491"/>
      <point x="240" y="1405" type="qcurve"/>
      <point x="173" y="1539" type="line"/>
      <point x="333" y="1629"/>
      <point x="674" y="1713"/>
      <point x="870" y="1713" type="qcurve" smooth="yes"/>
      <point x="1081.5" y="1713.0" name="inserted"/>
      <point x="1405.0" y="1585.5"/>
      <point x="1517" y="1458" type="qcurve" smooth="yes"/>
      <point x="1629.0" y="1330.0" name="inserted"/>
      <point x="1741.0" y="957.0"/>
      <point x="1741" y="712" type="qcurve" smooth="yes"/>
      <point x="1741.0" y="576.5" name="inserted"/>
      <point x="1706.0" y="354.5"/>
      <point x="1671" y="268" type="qcurve"/>
      <point x="1671" y="-535" type="line"/>
      <point x="585" y="-535" type="line" smooth="yes"/>
      <point x="475.5" y="-535.0" name="inserted"/>
      <point x="320.5" y="-502.0"/>
      <point x="275" y="-469" type="qcurve" smooth="yes"/>
      <point x="230.0" y="-437.0" name="inserted"/>
      <point x="185.0" y="-346.0"/>
      <point x="185" y="-287" type="qcurve" smooth="yes"/>
      <point x="185" y="-225"/>
      <point x="242" y="-116"/>
      <point x="311" y="-55" type="qcurve"/>
      <point x="413" y="-159" type="line"/>
      <point x="373.5" y="-187.5" name="inserted"/>
      <point x="334.0" y="-248.5"/>
      <point x="334" y="-281" type="qcurve" smooth="yes"/>
      <point x="334.0" y="-302.0" name="inserted"/>
      <point x="348.5" y="-336.5"/>
      <point x="363" y="-350" type="qcurve" smooth="yes"/>
      <point x="378.0" y="-364.5" name="inserted"/>
      <point x="422.0" y="-382.5"/>
      <point x="451" y="-386" type="qcurve" smooth="yes"/>
      <point x="480.0" y="-390.5" name="inserted"/>
      <point x="577.0" y="-395.0"/>
      <point x="645" y="-395" type="qcurve" smooth="yes"/>
      <point x="1523" y="-395" type="line"/>
      <point x="1523" y="-70" type="line" smooth="yes"/>
      <point x="1523" y="-25"/>
      <point x="1526" y="48"/>
      <point x="1528" y="77" type="qcurve"/>
      <point x="1473.0" y="27.5" name="inserted"/>
      <point x="1329.5" y="-22.0"/>
    </contour>
    <contour>
      <point x="367" y="1109" type="qcurve"/>
      <point x="279" y="1096"/>
      <point x="197" y="1024"/>
      <point x="197" y="976" type="qcurve" smooth="yes"/>
      <point x="197" y="928"/>
      <point x="250" y="874"/>
      <point x="301" y="874" type="qcurve" smooth="yes"/>
      <point x="355" y="874"/>
      <point x="407" y="929"/>
      <point x="407" y="978" type="qcurve" smooth="yes"/>
      <point x="407.0" y="1017.5" name="inserted"/>
      <point x="387.0" y="1083.0"/>
    </contour>
  </outline>
</glyph>
<glyph name="uni0DA0_uni0DD4" format="1">
  <advance width="1668"/>
  <outline>
    <contour>
      <point x="739" y="-22" type="qcurve" smooth="yes"/>
      <point x="583" y="-23"/>
      <point x="342" y="51"/>
      <point x="261.0" y="116.5" type="qcurve" smooth="yes" name="inserted"/>
      <point x="180" y="182"/>
      <point x="98" y="360"/>
      <point x="100" y="464" type="qcurve" smooth="yes"/>
      <point x="100" y="581"/>
      <point x="199" y="753"/>
      <point x="293" y="804" type="qcurve"/>
      <point x="258" y="800"/>
      <point x="168" y="797"/>
      <point x="112" y="797" type="qcurve" smooth="yes"/>
      <point x="62" y="797" type="line"/>
      <point x="62" y="932" type="line"/>
      <point x="803" y="932" type="line"/>
      <point x="797" y="1022"/>
      <point x="697" y="1119"/>
      <point x="612" y="1119" type="qcurve" smooth="yes"/>
      <point x="533" y="1119"/>
      <point x="455" y="1060"/>
      <point x="455" y="1005" type="qcurve" smooth="yes"/>
      <point x="455" y="992" type="line" smooth="yes"/>
      <point x="455.0" y="987.5" name="inserted"/>
      <point x="455.5" y="980.5"/>
      <point x="456" y="978" type="qcurve"/>
      <point x="310" y="971" type="line"/>
      <point x="308.5" y="982.0" name="inserted"/>
      <point x="307.0" y="1004.5"/>
      <point x="307" y="1016" type="qcurve" smooth="yes"/>
      <point x="307" y="1131"/>
      <point x="461" y="1254"/>
      <point x="601" y="1254" type="qcurve" smooth="yes"/>
      <point x="769" y="1254"/>
      <point x="947" y="1062"/>
      <point x="947" y="880" type="qcurve" smooth="yes"/>
      <point x="947" y="797" type="line"/>
      <point x="770" y="797" type="line" smooth="yes"/>
      <point x="682.5" y="797.0" name="inserted"/>
      <point x="556.5" y="790.5"/>
      <point x="518" y="784" type="qcurve" smooth="yes"/>
      <point x="477.0" y="777.0" name="inserted"/>
      <point x="404.5" y="749.5"/>
      <point x="373" y="729" type="qcurve" smooth="yes"/>
      <point x="309" y="687"/>
      <point x="249" y="561"/>
      <point x="249" y="476" type="qcurve" smooth="yes"/>
      <point x="249.0" y="393.0" name="inserted"/>
      <point x="312.5" y="263.5"/>
      <point x="376" y="217" type="qcurve" smooth="yes"/>
      <point x="439.5" y="170.5" name="inserted"/>
      <point x="621.0" y="124.0"/>
      <point x="739" y="124" type="qcurve" smooth="yes"/>
      <point x="850.0" y="124.0" name="inserted"/>
      <point x="1038.5" y="166.5"/>
      <point x="1116" y="209" type="qcurve" smooth="yes"/>
      <point x="1194.0" y="251.5" name="inserted"/>
      <point x="1314.5" y="378.5"/>
      <point x="1357" y="463" type="qcurve" smooth="yes"/>
      <point x="1399.0" y="547.0" name="inserted"/>
      <point x="1441.0" y="743.5"/>
      <point x="1441" y="856" type="qcurve" smooth="yes"/>
      <point x="1441.0" y="971.5" name="inserted"/>
      <point x="1398.5" y="1166.0"/>
      <point x="1356" y="1245" type="qcurve" smooth="yes"/>
      <point x="1314.5" y="1324.5" name="inserted"/>
      <point x="1194.0" y="1445.5"/>
      <point x="1115" y="1487" type="qcurve" smooth="yes"/>
      <point x="1037.5" y="1528.0" name="inserted"/>
      <point x="862.5" y="1569.0"/>
      <point x="765" y="1569" type="qcurve" smooth="yes"/>
      <point x="681.0" y="1569.0" name="inserted"/>
      <point x="526.0" y="1549.5"/>
      <point x="455" y="1530" type="qcurve" smooth="yes"/>
      <point x="384.5" y="1511.5" name="inserted"/>
      <point x="239.5" y="1448.5"/>
      <point x="165" y="1404" type="qcurve"/>
      <point x="98" y="1539" type="line"/>
      <point x="251.5" y="1626.0" name="inserted"/>
      <point x="585.5" y="1713.0"/>
      <point x="766" y="1713" type="qcurve" smooth="yes"/>
      <point x="889.0" y="1713.0" name="inserted"/>
      <point x="1107.5" y="1662.0"/>
      <point x="1203" y="1611" type="qcurve" smooth="yes"/>
      <point x="1394" y="1508"/>
      <point x="1595" y="1125"/>
      <point x="1595" y="856" type="qcurve" smooth="yes"/>
      <point x="1595.0" y="738.0" name="inserted"/>
      <point x="1555.0" y="525.5"/>
      <point x="1515" y="431" type="qcurve"/>
      <point x="1515" y="-535" type="line"/>
      <point x="530" y="-535" type="line" smooth="yes"/>
      <point x="420.5" y="-535.0" name="inserted"/>
      <point x="265.5" y="-502.0"/>
      <point x="220" y="-469" type="qcurve" smooth="yes"/>
      <point x="175.0" y="-437.0" name="inserted"/>
      <point x="130.0" y="-346.0"/>
      <point x="130" y="-287" type="qcurve" smooth="yes"/>
      <point x="130" y="-225"/>
      <point x="187" y="-116"/>
      <point x="256" y="-55" type="qcurve"/>
      <point x="358" y="-159" type="line"/>
      <point x="318.5" y="-187.5" name="inserted"/>
      <point x="279.0" y="-248.5"/>
      <point x="279" y="-281" type="qcurve" smooth="yes"/>
      <point x="279.0" y="-302.0" name="inserted"/>
      <point x="293.5" y="-336.5"/>
      <point x="308" y="-350" type="qcurve" smooth="yes"/>
      <point x="323.0" y="-364.5" name="inserted"/>
      <point x="367.0" y="-382.5"/>
      <point x="396" y="-386" type="qcurve" smooth="yes"/>
      <point x="425.0" y="-390.5" name="inserted"/>
      <point x="522.0" y="-395.0"/>
      <point x="590" y="-395" type="qcurve" smooth="yes"/>
      <point x="1367" y="-395" type="line"/>
      <point x="1367" y="26" type="line" smooth="yes"/>
      <point x="1367" y="84"/>
      <point x="1370" y="182"/>
      <point x="1372" y="222" type="qcurve"/>
      <point x="1264.0" y="100.0" name="inserted"/>
      <point x="947.5" y="-22.0"/>
    </contour>
  </outline>
</glyph>
<glyph name="uni0DA9_uni0DD3" format="1">
  <advance width="1769"/>
  <outline>
    <contour>
      <point x="1686" y="662" type="qcurve" smooth="yes"/>
      <point x="1686" y="322"/>
      <point x="1439" y="-22"/>
      <point x="1195" y="-22" type="qcurve" smooth="yes"/>
      <point x="1088" y="-22"/>
      <point x="925" y="61"/>
      <point x="856" y="158" type="qcurve"/>
      <point x="817.0" y="105.5" name="inserted"/>
      <point x="738.5" y="34.5"/>
      <point x="699" y="16" type="qcurve" smooth="yes"/>
      <point x="658.5" y="-3.0" name="inserted"/>
      <point x="562.5" y="-22.0"/>
      <point x="507" y="-22" type="qcurve" smooth="yes"/>
      <point x="412.0" y="-22.0" name="inserted"/>
      <point x="259.5" y="37.0"/>
      <point x="202" y="96" type="qcurve" smooth="yes"/>
      <point x="145.0" y="155.0" name="inserted"/>
      <point x="88.0" y="316.0"/>
      <point x="88" y="418" type="qcurve" smooth="yes"/>
      <point x="88.0" y="550.5" name="inserted"/>
      <point x="202.5" y="743.5"/>
      <point x="317" y="804" type="qcurve"/>
      <point x="282" y="800"/>
      <point x="174" y="797"/>
      <point x="102" y="797" type="qcurve" smooth="yes"/>
      <point x="62" y="797" type="line"/>
      <point x="62" y="932" type="line"/>
      <point x="710" y="932" type="line"/>
      <point x="705" y="1022"/>
      <point x="605" y="1119"/>
      <point x="520" y="1119" type="qcurve" smooth="yes"/>
      <point x="441" y="1119"/>
      <point x="363" y="1060"/>
      <point x="363" y="1005" type="qcurve" smooth="yes"/>
      <point x="363" y="991" type="line" smooth="yes"/>
      <point x="363.0" y="986.0" name="inserted"/>
      <point x="363.5" y="979.5"/>
      <point x="364" y="978" type="qcurve"/>
      <point x="217" y="971" type="line"/>
      <point x="215.5" y="982.0" name="inserted"/>
      <point x="214.0" y="1004.5"/>
      <point x="214" y="1016" type="qcurve" smooth="yes"/>
      <point x="214" y="1131"/>
      <point x="368" y="1254"/>
      <point x="509" y="1254" type="qcurve" smooth="yes"/>
      <point x="675" y="1254"/>
      <point x="855" y="1065"/>
      <point x="855" y="881" type="qcurve" smooth="yes"/>
      <point x="855" y="797" type="line"/>
      <point x="800" y="797" type="line" smooth="yes"/>
      <point x="721" y="797"/>
      <point x="602" y="791"/>
      <point x="560" y="784" type="qcurve" smooth="yes"/>
      <point x="517.5" y="778.0" name="inserted"/>
      <point x="437.5" y="750.5"/>
      <point x="400" y="729" type="qcurve" smooth="yes"/>
      <point x="324" y="686"/>
      <point x="238" y="530"/>
      <point x="238" y="418" type="qcurve" smooth="yes"/>
      <point x="238" y="278"/>
      <point x="383" y="124"/>
      <point x="513" y="124" type="qcurve" smooth="yes"/>
      <point x="650" y="124"/>
      <point x="787" y="269"/>
      <point x="787" y="425" type="qcurve" smooth="yes"/>
      <point x="787" y="439" type="line"/>
      <point x="924" y="439" type="line"/>
      <point x="924" y="425" type="line" smooth="yes"/>
      <point x="924" y="269"/>
      <point x="1059" y="124"/>
      <point x="1198" y="124" type="qcurve" smooth="yes"/>
      <point x="1364" y="124"/>
      <point x="1531" y="390"/>
      <point x="1531" y="659" type="qcurve" smooth="yes"/>
      <point x="1531" y="849"/>
      <point x="1447" y="1123"/>
      <point x="1356" y="1214" type="qcurve" smooth="yes"/>
      <point x="1311.0" y="1259.5" name="inserted"/>
      <point x="1197.0" y="1325.5"/>
      <point x="1128" y="1346" type="qcurve" smooth="yes"/>
      <point x="1059.5" y="1367.0" name="inserted"/>
      <point x="884.0" y="1388.0"/>
      <point x="777" y="1388" type="qcurve" smooth="yes"/>
      <point x="596" y="1388" type="line" smooth="yes"/>
      <point x="517.0" y="1388.0" name="inserted"/>
      <point x="402.0" y="1400.0"/>
      <point x="366" y="1412" type="qcurve" smooth="yes"/>
      <point x="294" y="1436"/>
      <point x="210" y="1546"/>
      <point x="210" y="1634" type="qcurve" smooth="yes"/>
      <point x="210.0" y="1796.5" name="inserted"/>
      <point x="532.0" y="1959.0"/>
      <point x="854" y="1959" type="qcurve" smooth="yes"/>
      <point x="1216" y="1959"/>
      <point x="1586" y="1764"/>
      <point x="1586" y="1587" type="qcurve" smooth="yes"/>
      <point x="1586" y="1496"/>
      <point x="1495" y="1384"/>
      <point x="1402" y="1369" type="qcurve"/>
      <point x="1544.0" y="1272.0" name="inserted"/>
      <point x="1686.0" y="918.5"/>
    </contour>
    <contour>
      <point x="799" y="1530" type="line" smooth="yes"/>
      <point x="884.0" y="1530.0" name="inserted"/>
      <point x="1032.0" y="1515.0"/>
      <point x="1095" y="1500" type="qcurve"/>
      <point x="1087.5" y="1517.0" name="inserted"/>
      <point x="1080.0" y="1559.5"/>
      <point x="1080" y="1585" type="qcurve" smooth="yes"/>
      <point x="1080.0" y="1639.5" name="inserted"/>
      <point x="1127.5" y="1742.5"/>
      <point x="1175" y="1791" type="qcurve"/>
      <point x="1114" y="1804"/>
      <point x="959" y="1816"/>
      <point x="864" y="1816" type="qcurve" smooth="yes"/>
      <point x="602" y="1816"/>
      <point x="358" y="1730"/>
      <point x="358" y="1636" type="qcurve" smooth="yes"/>
      <point x="358.0" y="1608.0" name="inserted"/>
      <point x="377.5" y="1567.5"/>
      <point x="397" y="1555" type="qcurve" smooth="yes"/>
      <point x="416.0" y="1542.5" name="inserted"/>
      <point x="508.0" y="1530.0"/>
      <point x="581" y="1530" type="qcurve" smooth="yes"/>
    </contour>
    <contour>
      <point x="1306" y="1752" type="qcurve"/>
      <point x="1261.0" y="1718.0" name="inserted"/>
      <point x="1216.0" y="1636.5"/>
      <point x="1216" y="1589" type="qcurve" smooth="yes"/>
      <point x="1216" y="1535"/>
      <point x="1279" y="1475"/>
      <point x="1336" y="1475" type="qcurve" smooth="yes"/>
      <point x="1389.5" y="1475.0" name="inserted"/>
      <point x="1443.0" y="1527.5"/>
      <point x="1443" y="1580" type="qcurve" smooth="yes"/>
      <point x="1443" y="1631"/>
      <point x="1378" y="1720"/>
    </contour>
  </outline>
</glyph>
<glyph name="uni0DAF_uni0DCA_uni200D_uni0DBB" format="1">
  <advance width="1181"/>
  <outline>
    <contour>
      <point x="705" y="-22" type="qcurve" smooth="yes"/>
      <point x="556.5" y="-22.0" name="inserted"/>
      <point x="324.5" y="43.5"/>
      <point x="241" y="109" type="qcurve" smooth="yes"/>
      <point x="157.5" y="174.5" name="inserted"/>
      <point x="74.0" y="358.5"/>
      <point x="74" y="477" type="qcurve" smooth="yes"/>
      <point x="74" y="600"/>
      <point x="170" y="776"/>
      <point x="261" y="834" type="qcurve" smooth="yes"/>
      <point x="307.0" y="863.5" name="inserted"/>
      <point x="411.0" y="902.5"/>
      <point x="469" y="912" type="qcurve" smooth="yes"/>
      <point x="529" y="922"/>
      <point x="678" y="932"/>
      <point x="770" y="932" type="qcurve" smooth="yes"/>
      <point x="974" y="932" type="line"/>
      <point x="969" y="1020"/>
      <point x="868" y="1119"/>
      <point x="778" y="1119" type="qcurve" smooth="yes"/>
      <point x="697" y="1119"/>
      <point x="616" y="1058"/>
      <point x="616" y="1007" type="qcurve" smooth="yes"/>
      <point x="616" y="998"/>
      <point x="617" y="983"/>
      <point x="618" y="977" type="qcurve"/>
      <point x="471" y="959" type="line"/>
      <point x="469" y="973"/>
      <point x="467" y="1004"/>
      <point x="467" y="1021" type="qcurve" smooth="yes"/>
      <point x="467" y="1133"/>
      <point x="624" y="1254"/>
      <point x="768" y="1254" type="qcurve" smooth="yes"/>
      <point x="939" y="1254"/>
      <point x="1120" y="1063"/>
      <point x="1120" y="880" type="qcurve" smooth="yes"/>
      <point x="1120" y="797" type="line"/>
      <point x="787" y="797" type="line" smooth="yes"/>
      <point x="693" y="797"/>
      <point x="553" y="788"/>
      <point x="506" y="780" type="qcurve" smooth="yes"/>
      <point x="460.5" y="772.0" name="inserted"/>
      <point x="382.0" y="742.5"/>
      <point x="349" y="721" type="qcurve" smooth="yes"/>
      <point x="286" y="679"/>
      <point x="229" y="553"/>
      <point x="229" y="468" type="qcurve" smooth="yes"/>
      <point x="229.0" y="388.5" name="inserted"/>
      <point x="292.5" y="262.5"/>
      <point x="356" y="216" type="qcurve" smooth="yes"/>
      <point x="420.0" y="170.0" name="inserted"/>
      <point x="602.5" y="124.0"/>
      <point x="721" y="124" type="qcurve" smooth="yes"/>
      <point x="829.5" y="124.0" name="inserted"/>
      <point x="1030.5" y="168.0"/>
      <point x="1123" y="212" type="qcurve"/>
      <point x="1166" y="75" type="line"/>
      <point x="1132" y="58" type="line"/>
      <point x="1136.5" y="36.0" name="inserted"/>
      <point x="1141.0" y="-20.5"/>
      <point x="1141" y="-55" type="qcurve" smooth="yes"/>
      <point x="1141" y="-153"/>
      <point x="1075" y="-307"/>
      <point x="1010.0" y="-360.5" type="qcurve" smooth="yes" name="inserted"/>
      <point x="945" y="-414"/>
      <point x="749" y="-470"/>
      <point x="620" y="-470" type="qcurve" smooth="yes"/>
      <point x="363" y="-470"/>
      <point x="102" y="-265"/>
      <point x="102" y="-73" type="qcurve" smooth="yes"/>
      <point x="102" y="-56" type="line" smooth="yes"/>
      <point x="102" y="-51"/>
      <point x="102" y="-41"/>
      <point x="103" y="-36" type="qcurve"/>
      <point x="252" y="-43" type="line"/>
      <point x="252" y="-50" type="line" smooth="yes"/>
      <point x="252" y="-125"/>
      <point x="297" y="-230"/>
      <point x="342.5" y="-262.5" type="qcurve" smooth="yes" name="inserted"/>
      <point x="388" y="-295"/>
      <point x="527" y="-325"/>
      <point x="620" y="-325" type="qcurve" smooth="yes"/>
      <point x="711" y="-325"/>
      <point x="850" y="-296"/>
      <point x="896.5" y="-262.0" type="qcurve" smooth="yes" name="inserted"/>
      <point x="943" y="-228"/>
      <point x="991" y="-117"/>
      <point x="991" y="-35" type="qcurve" smooth="yes"/>
      <point x="991.0" y="-29.5" name="inserted"/>
      <point x="989.5" y="-12.0"/>
      <point x="988" y="0" type="qcurve"/>
      <point x="988.0" y="4.0" name="inserted"/>
      <point x="987.5" y="10.0"/>
      <point x="987" y="12" type="qcurve"/>
      <point x="925.5" y="-5.0" name="inserted"/>
      <point x="784.5" y="-22.0"/>
    </contour>
  </outline>
</glyph>
<glyph name="uni0DAF_uni0DCA_uni200D_uni0DBB_uni0DD3" format="1">
  <advance width="1181"/>
  <outline>
    <contour>
      <point x="705" y="-22" type="qcurve" smooth="yes"/>
      <point x="556.5" y="-22.0" name="inserted"/>
      <point x="324.5" y="43.5"/>
      <point x="241" y="109" type="qcurve" smooth="yes"/>
      <point x="157.5" y="174.5" name="inserted"/>
      <point x="74.0" y="358.5"/>
      <point x="74" y="477" type="qcurve" smooth="yes"/>
      <point x="74" y="600"/>
      <point x="170" y="776"/>
      <point x="261" y="834" type="qcurve" smooth="yes"/>
      <point x="307.0" y="863.5" name="inserted"/>
      <point x="411.0" y="902.5"/>
      <point x="469" y="912" type="qcurve" smooth="yes"/>
      <point x="529" y="922"/>
      <point x="678" y="932"/>
      <point x="770" y="932" type="qcurve" smooth="yes"/>
      <point x="974" y="932" type="line"/>
      <point x="969" y="1020"/>
      <point x="868" y="1119"/>
      <point x="778" y="1119" type="qcurve" smooth="yes"/>
      <point x="697" y="1119"/>
      <point x="616" y="1058"/>
      <point x="616" y="1007" type="qcurve" smooth="yes"/>
      <point x="616" y="998"/>
      <point x="617" y="983"/>
      <point x="618" y="977" type="qcurve"/>
      <point x="471" y="959" type="line"/>
      <point x="469" y="973"/>
      <point x="467" y="1004"/>
      <point x="467" y="1021" type="qcurve" smooth="yes"/>
      <point x="467" y="1130"/>
      <point x="618" y="1252"/>
      <point x="757" y="1254" type="qcurve"/>
      <point x="705.5" y="1280.0" name="inserted"/>
      <point x="654.0" y="1373.5"/>
      <point x="654" y="1441" type="qcurve" smooth="yes"/>
      <point x="654.0" y="1493.0" name="inserted"/>
      <point x="700.0" y="1594.0"/>
      <point x="746" y="1643" type="qcurve"/>
      <point x="713" y="1647"/>
      <point x="649" y="1650"/>
      <point x="617" y="1650" type="qcurve" smooth="yes"/>
      <point x="446" y="1650"/>
      <point x="275" y="1537"/>
      <point x="275" y="1438" type="qcurve" smooth="yes"/>
      <point x="275.0" y="1400.5" name="inserted"/>
      <point x="300.5" y="1339.0"/>
      <point x="326" y="1315" type="qcurve" smooth="yes"/>
      <point x="351.5" y="1292.0" name="inserted"/>
      <point x="438.0" y="1247.0"/>
      <point x="499" y="1225" type="qcurve"/>
      <point x="430" y="1106" type="line"/>
      <point x="279" y="1152"/>
      <point x="128" y="1323"/>
      <point x="128" y="1443" type="qcurve" smooth="yes"/>
      <point x="128.0" y="1523.0" name="inserted"/>
      <point x="191.0" y="1650.5"/>
      <point x="254" y="1698" type="qcurve" smooth="yes"/>
      <point x="317.5" y="1746.0" name="inserted"/>
      <point x="499.5" y="1794.0"/>
      <point x="618" y="1794" type="qcurve" smooth="yes"/>
      <point x="711.5" y="1794.0" name="inserted"/>
      <point x="866.0" y="1769.5"/>
      <point x="927" y="1745" type="qcurve" smooth="yes"/>
      <point x="1051" y="1696"/>
      <point x="1160" y="1538"/>
      <point x="1160" y="1443" type="qcurve" smooth="yes"/>
      <point x="1160" y="1343"/>
      <point x="1048" y="1225"/>
      <point x="940" y="1221" type="qcurve"/>
      <point x="1030.0" y="1179.0" name="inserted"/>
      <point x="1120.0" y="1008.5"/>
      <point x="1120" y="880" type="qcurve" smooth="yes"/>
      <point x="1120" y="797" type="line"/>
      <point x="787" y="797" type="line" smooth="yes"/>
      <point x="693" y="797"/>
      <point x="553" y="788"/>
      <point x="506" y="780" type="qcurve" smooth="yes"/>
      <point x="460.5" y="772.0" name="inserted"/>
      <point x="382.0" y="742.5"/>
      <point x="349" y="721" type="qcurve" smooth="yes"/>
      <point x="286" y="679"/>
      <point x="229" y="553"/>
      <point x="229" y="468" type="qcurve" smooth="yes"/>
      <point x="229.0" y="388.5" name="inserted"/>
      <point x="292.5" y="262.5"/>
      <point x="356" y="216" type="qcurve" smooth="yes"/>
      <point x="420.0" y="170.0" name="inserted"/>
      <point x="602.5" y="124.0"/>
      <point x="721" y="124" type="qcurve" smooth="yes"/>
      <point x="829.5" y="124.0" name="inserted"/>
      <point x="1030.5" y="168.0"/>
      <point x="1123" y="212" type="qcurve"/>
      <point x="1166" y="75" type="line"/>
      <point x="1132" y="58" type="line"/>
      <point x="1136.5" y="36.0" name="inserted"/>
      <point x="1141.0" y="-20.5"/>
      <point x="1141" y="-55" type="qcurve" smooth="yes"/>
      <point x="1141" y="-153"/>
      <point x="1075" y="-307"/>
      <point x="1010.0" y="-360.5" type="qcurve" smooth="yes" name="inserted"/>
      <point x="945" y="-414"/>
      <point x="749" y="-470"/>
      <point x="620" y="-470" type="qcurve" smooth="yes"/>
      <point x="363" y="-470"/>
      <point x="102" y="-265"/>
      <point x="102" y="-73" type="qcurve" smooth="yes"/>
      <point x="102" y="-56" type="line" smooth="yes"/>
      <point x="102" y="-51"/>
      <point x="102" y="-41"/>
      <point x="103" y="-36" type="qcurve"/>
      <point x="252" y="-43" type="line"/>
      <point x="252" y="-50" type="line" smooth="yes"/>
      <point x="252" y="-125"/>
      <point x="297" y="-230"/>
      <point x="342.5" y="-262.5" type="qcurve" smooth="yes" name="inserted"/>
      <point x="388" y="-295"/>
      <point x="527" y="-325"/>
      <point x="620" y="-325" type="qcurve" smooth="yes"/>
      <point x="711" y="-325"/>
      <point x="850" y="-296"/>
      <point x="896.5" y="-262.0" type="qcurve" smooth="yes" name="inserted"/>
      <point x="943" y="-228"/>
      <point x="991" y="-117"/>
      <point x="991" y="-35" type="qcurve" smooth="yes"/>
      <point x="991.0" y="-29.5" name="inserted"/>
      <point x="989.5" y="-12.0"/>
      <point x="988" y="0" type="qcurve"/>
      <point x="988.0" y="4.0" name="inserted"/>
      <point x="987.5" y="10.0"/>
      <point x="987" y="12" type="qcurve"/>
      <point x="925.5" y="-5.0" name="inserted"/>
      <point x="784.5" y="-22.0"/>
    </contour>
    <contour>
      <point x="884" y="1611" type="qcurve"/>
      <point x="837.0" y="1576.5" name="inserted"/>
      <point x="790.0" y="1492.5"/>
      <point x="790" y="1443" type="qcurve" smooth="yes"/>
      <point x="790" y="1389"/>
      <point x="853" y="1331"/>
      <point x="910" y="1331" type="qcurve" smooth="yes"/>
      <point x="963.5" y="1331.0" name="inserted"/>
      <point x="1017.0" y="1383.5"/>
      <point x="1017" y="1436" type="qcurve" smooth="yes"/>
      <point x="1017.0" y="1499.0" name="inserted"/>
      <point x="950.5" y="1586.5"/>
    </contour>
  </outline>
</glyph>
<glyph name="uni0DB9_uni0DD3" format="1">
  <advance width="1811"/>
  <outline>
    <contour>
      <point x="1727" y="710" type="qcurve" smooth="yes"/>
      <point x="1727.0" y="538.0" name="inserted"/>
      <point x="1653.5" y="269.5"/>
      <point x="1580" y="173" type="qcurve" smooth="yes"/>
      <point x="1507.0" y="76.0" name="inserted"/>
      <point x="1296.5" y="-21.0"/>
      <point x="1159" y="-21" type="qcurve" smooth="yes"/>
      <point x="1090.0" y="-21.0" name="inserted"/>
      <point x="983.5" y="-9.5"/>
      <point x="946" y="2" type="qcurve"/>
      <point x="932" y="137" type="line"/>
      <point x="976.5" y="148.5" name="inserted"/>
      <point x="1021.0" y="197.5"/>
      <point x="1021" y="235" type="qcurve" smooth="yes"/>
      <point x="1021.0" y="287.5" name="inserted"/>
      <point x="942.0" y="340.0"/>
      <point x="863" y="340" type="qcurve" smooth="yes"/>
      <point x="784" y="340"/>
      <point x="703" y="286"/>
      <point x="703" y="235" type="qcurve" smooth="yes"/>
      <point x="703.0" y="197.5" name="inserted"/>
      <point x="747.5" y="148.5"/>
      <point x="792" y="137" type="qcurve"/>
      <point x="778" y="2" type="line"/>
      <point x="739.5" y="-10.0" name="inserted"/>
      <point x="657.5" y="-22.0"/>
      <point x="614" y="-22" type="qcurve" smooth="yes"/>
      <point x="492.0" y="-22.0" name="inserted"/>
      <point x="298.0" y="62.5"/>
      <point x="226" y="147" type="qcurve" smooth="yes"/>
      <point x="154.5" y="232.0" name="inserted"/>
      <point x="83.0" y="465.0"/>
      <point x="83" y="613" type="qcurve" smooth="yes"/>
      <point x="81" y="742"/>
      <point x="139" y="952"/>
      <point x="191.5" y="1026.5" type="qcurve" smooth="yes" name="inserted"/>
      <point x="244" y="1101"/>
      <point x="386" y="1180"/>
      <point x="467" y="1179" type="qcurve" smooth="yes"/>
      <point x="510" y="1179"/>
      <point x="576" y="1155"/>
      <point x="598.5" y="1133.5" type="qcurve" smooth="yes" name="inserted"/>
      <point x="621" y="1112"/>
      <point x="644" y="1053"/>
      <point x="644" y="1019" type="qcurve" smooth="yes"/>
      <point x="644" y="1000"/>
      <point x="639" y="947"/>
      <point x="634" y="912" type="qcurve" smooth="yes"/>
      <point x="629" y="877"/>
      <point x="623" y="815"/>
      <point x="623" y="789" type="qcurve" smooth="yes"/>
      <point x="623.0" y="696.0" name="inserted"/>
      <point x="738.5" y="603.0"/>
      <point x="854" y="603" type="qcurve" smooth="yes"/>
      <point x="963.0" y="603.0" name="inserted"/>
      <point x="1092.5" y="688.0"/>
      <point x="1113" y="773" type="qcurve"/>
      <point x="1074.5" y="749.5" name="inserted"/>
      <point x="984.5" y="726.0"/>
      <point x="933" y="726" type="qcurve" smooth="yes"/>
      <point x="822" y="726"/>
      <point x="697" y="846"/>
      <point x="697" y="951" type="qcurve" smooth="yes"/>
      <point x="697.0" y="1000.5" name="inserted"/>
      <point x="732.5" y="1082.5"/>
      <point x="768" y="1115" type="qcurve" smooth="yes"/>
      <point x="803.0" y="1147.0" name="inserted"/>
      <point x="902.0" y="1179.0"/>
      <point x="966" y="1179" type="qcurve" smooth="yes"/>
      <point x="1031.0" y="1179.0" name="inserted"/>
      <point x="1137.5" y="1135.5"/>
      <point x="1179" y="1092" type="qcurve" smooth="yes"/>
      <point x="1220.0" y="1049.0" name="inserted"/>
      <point x="1261.0" y="926.0"/>
      <point x="1261" y="846" type="qcurve" smooth="yes"/>
      <point x="1261.0" y="760.5" name="inserted"/>
      <point x="1206.0" y="623.0"/>
      <point x="1151" y="571" type="qcurve" smooth="yes"/>
      <point x="1096.0" y="520.0" name="inserted"/>
      <point x="948.0" y="469.0"/>
      <point x="855" y="469" type="qcurve" smooth="yes"/>
      <point x="753" y="469"/>
      <point x="610" y="519"/>
      <point x="565.0" y="561.5" type="qcurve" smooth="yes" name="inserted"/>
      <point x="520" y="604"/>
      <point x="479" y="718"/>
      <point x="479" y="782" type="qcurve" smooth="yes"/>
      <point x="479" y="804"/>
      <point x="484" y="857"/>
      <point x="489" y="889" type="qcurve" smooth="yes"/>
      <point x="493.5" y="920.5" name="inserted"/>
      <point x="498.0" y="962.5"/>
      <point x="498" y="973" type="qcurve" smooth="yes"/>
      <point x="498.0" y="1008.5" name="inserted"/>
      <point x="468.0" y="1044.0"/>
      <point x="438" y="1044" type="qcurve"/>
      <point x="400" y="1046"/>
      <point x="326" y="984"/>
      <point x="296.5" y="927.5" type="qcurve" smooth="yes" name="inserted"/>
      <point x="267" y="871"/>
      <point x="231" y="713"/>
      <point x="233" y="620" type="qcurve" smooth="yes"/>
      <point x="233.0" y="501.5" name="inserted"/>
      <point x="282.5" y="316.5"/>
      <point x="332" y="250" type="qcurve" smooth="yes"/>
      <point x="382.5" y="183.0" name="inserted"/>
      <point x="520.0" y="116.0"/>
      <point x="607" y="116" type="qcurve" smooth="yes"/>
      <point x="617" y="116" type="line"/>
      <point x="617.5" y="115.5" name="inserted"/>
      <point x="619.0" y="115.0"/>
      <point x="620" y="115" type="qcurve" smooth="yes"/>
      <point x="622.0" y="115.0" name="inserted"/>
      <point x="625.5" y="115.5"/>
      <point x="627" y="116" type="qcurve"/>
      <point x="592.5" y="144.5" name="inserted"/>
      <point x="558.0" y="217.5"/>
      <point x="558" y="262" type="qcurve" smooth="yes"/>
      <point x="558" y="359"/>
      <point x="707" y="463"/>
      <point x="850" y="463" type="qcurve" smooth="yes"/>
      <point x="877" y="463" type="line" smooth="yes"/>
      <point x="1016" y="463"/>
      <point x="1166" y="359"/>
      <point x="1166" y="262" type="qcurve" smooth="yes"/>
      <point x="1166.0" y="218.0" name="inserted"/>
      <point x="1131.5" y="145.0"/>
      <point x="1097" y="116" type="qcurve"/>
      <point x="1155" y="116" type="line" smooth="yes"/>
      <point x="1257.0" y="116.0" name="inserted"/>
      <point x="1412.5" y="193.5"/>
      <point x="1466" y="271" type="qcurve" smooth="yes"/>
      <point x="1520.0" y="349.0" name="inserted"/>
      <point x="1574.0" y="570.5"/>
      <point x="1574" y="714" type="qcurve" smooth="yes"/>
      <point x="1574.0" y="834.0" name="inserted"/>
      <point x="1533.0" y="1025.5"/>
      <point x="1492" y="1097" type="qcurve" smooth="yes"/>
      <point x="1452.0" y="1169.0" name="inserted"/>
      <point x="1333.0" y="1278.0"/>
      <point x="1254" y="1315" type="qcurve" smooth="yes"/>
      <point x="1176.0" y="1351.5" name="inserted"/>
      <point x="944.0" y="1388.0"/>
      <point x="790" y="1388" type="qcurve" smooth="yes"/>
      <point x="598" y="1388" type="line" smooth="yes"/>
      <point x="524.0" y="1388.0" name="inserted"/>
      <point x="413.5" y="1398.5"/>
      <point x="377" y="1409" type="qcurve" smooth="yes"/>
      <point x="305" y="1430"/>
      <point x="212" y="1544"/>
      <point x="212" y="1635" type="qcurve" smooth="yes"/>
      <point x="212.0" y="1797.0" name="inserted"/>
      <point x="541.0" y="1959.0"/>
      <point x="870" y="1959" type="qcurve" smooth="yes"/>
      <point x="1245" y="1959"/>
      <point x="1616" y="1766"/>
      <point x="1616" y="1587" type="qcurve" smooth="yes"/>
      <point x="1616" y="1496"/>
      <point x="1525" y="1386"/>
      <point x="1437" y="1370" type="qcurve"/>
      <point x="1577" y="1277"/>
      <point x="1727" y="949"/>
    </contour>
    <contour>
      <point x="815" y="1530" type="line" smooth="yes"/>
      <point x="907" y="1530"/>
      <point x="1061" y="1515"/>
      <point x="1125" y="1501" type="qcurve"/>
      <point x="1117.5" y="1518.0" name="inserted"/>
      <point x="1110.0" y="1560.0"/>
      <point x="1110" y="1585" type="qcurve" smooth="yes"/>
      <point x="1110.0" y="1640.5" name="inserted"/>
      <point x="1157.0" y="1743.0"/>
      <point x="1204" y="1790" type="qcurve"/>
      <point x="1136" y="1803"/>
      <point x="975" y="1816"/>
      <point x="880" y="1816" type="qcurve" smooth="yes"/>
      <point x="610" y="1816"/>
      <point x="360" y="1730"/>
      <point x="360" y="1636" type="qcurve" smooth="yes"/>
      <point x="360.0" y="1608.0" name="inserted"/>
      <point x="379.5" y="1567.5"/>
      <point x="399" y="1555" type="qcurve" smooth="yes"/>
      <point x="418.0" y="1542.5" name="inserted"/>
      <point x="510.0" y="1530.0"/>
      <point x="583" y="1530" type="qcurve" smooth="yes"/>
    </contour>
    <contour>
      <point x="1335" y="1751" type="qcurve"/>
      <point x="1290.5" y="1718.0" name="inserted"/>
      <point x="1246.0" y="1637.0"/>
      <point x="1246" y="1589" type="qcurve" smooth="yes"/>
      <point x="1246" y="1535"/>
      <point x="1309" y="1475"/>
      <point x="1366" y="1475" type="qcurve" smooth="yes"/>
      <point x="1419.5" y="1475.0" name="inserted"/>
      <point x="1473.0" y="1527.5"/>
      <point x="1473" y="1580" type="qcurve" smooth="yes"/>
      <point x="1473.0" y="1635.5" name="inserted"/>
      <point x="1404.0" y="1721.0"/>
    </contour>
    <contour>
      <point x="1117" y="895" type="qcurve"/>
      <point x="1106" y="970"/>
      <point x="1026" y="1048"/>
      <point x="963" y="1048" type="qcurve" smooth="yes"/>
      <point x="905" y="1048"/>
      <point x="841" y="1000"/>
      <point x="841" y="951" type="qcurve" smooth="yes"/>
      <point x="841" y="903"/>
      <point x="901" y="852"/>
      <point x="955" y="852" type="qcurve" smooth="yes"/>
      <point x="1001.0" y="852.0" name="inserted"/>
      <point x="1082.0" y="873.5"/>
    </contour>
  </outline>
</glyph>
<glyph name="uni0DBD_uni0DCA_uni200D_uni0DBB" format="1">
  <advance width="1744"/>
  <outline>
    <contour>
      <point x="1657" y="776" type="qcurve" smooth="yes"/>
      <point x="1657.0" y="689.5" name="inserted"/>
      <point x="1599.5" y="552.0"/>
      <point x="1542" y="501" type="qcurve" smooth="yes"/>
      <point x="1484.0" y="450.5" name="inserted"/>
      <point x="1323.0" y="400.0"/>
      <point x="1220" y="400" type="qcurve" smooth="yes"/>
      <point x="1043" y="400"/>
      <point x="865" y="541"/>
      <point x="865" y="681" type="qcurve" smooth="yes"/>
      <point x="865.0" y="697.5" name="inserted"/>
      <point x="870.5" y="733.0"/>
      <point x="876" y="752" type="qcurve"/>
      <point x="566" y="752" type="line"/>
      <point x="566" y="889" type="line"/>
      <point x="1330" y="889" type="line"/>
      <point x="1330" y="752" type="line"/>
      <point x="1031" y="752" type="line"/>
      <point x="1023.0" y="737.5" name="inserted"/>
      <point x="1015.0" y="703.5"/>
      <point x="1015" y="684" type="qcurve" smooth="yes"/>
      <point x="1015.0" y="612.5" name="inserted"/>
      <point x="1116.5" y="541.0"/>
      <point x="1218" y="541" type="qcurve" smooth="yes"/>
      <point x="1358" y="541"/>
      <point x="1503" y="662"/>
      <point x="1503" y="774" type="qcurve" smooth="yes"/>
      <point x="1503" y="948"/>
      <point x="1248" y="1114"/>
      <point x="989" y="1114" type="qcurve" smooth="yes"/>
      <point x="804.5" y="1114.0" name="inserted"/>
      <point x="522.0" y="1034.0"/>
      <point x="424" y="954" type="qcurve" smooth="yes"/>
      <point x="326.0" y="874.0" name="inserted"/>
      <point x="228.0" y="649.5"/>
      <point x="228" y="505" type="qcurve" smooth="yes"/>
      <point x="228.0" y="374.5" name="inserted"/>
      <point x="317.0" y="173.0"/>
      <point x="406" y="102" type="qcurve" smooth="yes"/>
      <point x="495.0" y="31.0" name="inserted"/>
      <point x="747.0" y="-40.0"/>
      <point x="910" y="-40" type="qcurve" smooth="yes"/>
      <point x="1210" y="-40"/>
      <point x="1522" y="141"/>
      <point x="1522" y="321" type="qcurve" smooth="yes"/>
      <point x="1522" y="335" type="line"/>
      <point x="1669" y="345" type="line"/>
      <point x="1672" y="323" type="line"/>
      <point x="1673" y="319"/>
      <point x="1673" y="311"/>
      <point x="1673" y="306" type="qcurve" smooth="yes"/>
      <point x="1673.0" y="229.5" name="inserted"/>
      <point x="1627.5" y="97.0"/>
      <point x="1582" y="41" type="qcurve" smooth="yes"/>
      <point x="1536.0" y="-15.0" name="inserted"/>
      <point x="1403.0" y="-100.0"/>
      <point x="1316" y="-129" type="qcurve" smooth="yes"/>
      <point x="1228.5" y="-158.5" name="inserted"/>
      <point x="1027.0" y="-188.0"/>
      <point x="913" y="-188" type="qcurve" smooth="yes"/>
      <point x="702" y="-189"/>
      <point x="386" y="-88"/>
      <point x="281.0" y="4.0" type="qcurve" smooth="yes" name="inserted"/>
      <point x="176" y="96"/>
      <point x="72" y="352"/>
      <point x="74" y="507" type="qcurve" smooth="yes"/>
      <point x="74.0" y="620.0" name="inserted"/>
      <point x="128.5" y="817.5"/>
      <point x="183" y="902" type="qcurve" smooth="yes"/>
      <point x="237.5" y="986.5" name="inserted"/>
      <point x="396.0" y="1117.0"/>
      <point x="500" y="1163" type="qcurve" smooth="yes"/>
      <point x="603.5" y="1208.5" name="inserted"/>
      <point x="845.5" y="1254.0"/>
      <point x="984" y="1254" type="qcurve" smooth="yes"/>
      <point x="1317" y="1254"/>
      <point x="1657" y="1005"/>
    </contour>
    <contour>
      <point x="284" y="-81" type="line"/>
      <point x="284" y="-91" type="line" smooth="yes"/>
      <point x="284" y="-136"/>
      <point x="297" y="-207"/>
      <point x="311.0" y="-235.5" type="qcurve" smooth="yes" name="inserted"/>
      <point x="325" y="-264"/>
      <point x="369" y="-310"/>
      <point x="401" y="-330" type="qcurve" smooth="yes"/>
      <point x="467" y="-372"/>
      <point x="708" y="-410"/>
      <point x="877" y="-410" type="qcurve" smooth="yes"/>
      <point x="1184" y="-410"/>
      <point x="1490" y="-247"/>
      <point x="1490" y="-75" type="qcurve" smooth="yes"/>
      <point x="1490" y="-58" type="line"/>
      <point x="1638" y="-51" type="line"/>
      <point x="1639" y="-71" type="line" smooth="yes"/>
      <point x="1639.0" y="-111.5" name="inserted"/>
      <point x="1633.5" y="-177.0"/>
      <point x="1628" y="-202" type="qcurve" smooth="yes"/>
      <point x="1612" y="-273"/>
      <point x="1520" y="-400"/>
      <point x="1428" y="-451" type="qcurve" smooth="yes"/>
      <point x="1335" y="-502"/>
      <point x="1056" y="-555"/>
      <point x="877" y="-555" type="qcurve" smooth="yes"/>
      <point x="697" y="-553"/>
      <point x="420" y="-509"/>
      <point x="325.5" y="-458.0" type="qcurve" smooth="yes" name="inserted"/>
      <point x="231" y="-407"/>
      <point x="134" y="-241"/>
      <point x="134" y="-117" type="qcurve" smooth="yes"/>
      <point x="134" y="-93" type="line" smooth="yes"/>
      <point x="134" y="-88"/>
      <point x="134" y="-79"/>
      <point x="135" y="-74" type="qcurve"/>
    </contour>
  </outline>
</glyph>
